<svg width="24" height="15" viewBox="0 0 24 15" fill="none" xmlns="http://www.w3.org/2000/svg">
<path d="M11.625 0C6.90831 0 2.51396 2.5421 0.151852 6.62892C-0.0506175 6.97385 -0.0506175 7.40876 0.151852 7.75374C2.51396 11.8406 6.90831 14.3827 11.625 14.3827C16.3417 14.3827 20.7361 11.8406 23.0982 7.75374C23.3006 7.40877 23.3006 6.97385 23.0982 6.62892C20.7361 2.5421 16.3417 0 11.625 0ZM11.625 11.6532C9.16541 11.6532 7.16323 9.65094 7.16323 7.19133C7.16323 4.73172 9.16541 2.72955 11.625 2.72955C14.0846 2.72955 16.0868 4.73172 16.0868 7.19133C16.0868 9.65094 14.0846 11.6532 11.625 11.6532Z" fill="#818181"/>
<path d="M11.6252 9.40353C12.847 9.40353 13.8374 8.41312 13.8374 7.19139C13.8374 5.96966 12.847 4.97925 11.6252 4.97925C10.4035 4.97925 9.41309 5.96966 9.41309 7.19139C9.41309 8.41312 10.4035 9.40353 11.6252 9.40353Z" fill="#818181"/>
</svg>
