<svg width="24" height="24" viewBox="0 0 24 24" fill="none" xmlns="http://www.w3.org/2000/svg">
<path d="M19.5849 10.0311C20.2237 9.48321 20.8106 8.87751 21.338 8.2217C21.4003 8.14571 21.4469 8.05806 21.475 7.96388C21.5031 7.8697 21.5122 7.77086 21.5017 7.67313C21.4913 7.5754 21.4614 7.48074 21.414 7.39465C21.3666 7.30856 21.3025 7.23277 21.2255 7.1717C21.1501 7.10885 21.0629 7.06161 20.9691 7.03274C20.8752 7.00388 20.7766 6.99395 20.6789 7.00355C20.5812 7.01314 20.4864 7.04207 20.4 7.08864C20.3135 7.13521 20.2372 7.1985 20.1755 7.27483C19.5886 8.00646 18.9185 8.66717 18.1786 9.24358H18.1599C16.613 10.4436 14.5036 11.4092 11.7567 11.4092C9.43611 11.4315 7.17617 10.6683 5.34423 9.24358H5.33486C4.59498 8.66717 3.92483 8.00646 3.33798 7.27483C3.27624 7.1985 3.19994 7.13521 3.11351 7.08864C3.02709 7.04207 2.93227 7.01314 2.83456 7.00355C2.73686 6.99395 2.63822 7.00388 2.54439 7.03274C2.45056 7.06161 2.3634 7.10885 2.28798 7.1717C2.21097 7.23277 2.14688 7.30856 2.09945 7.39465C2.05202 7.48074 2.0222 7.5754 2.01173 7.67313C2.00126 7.77086 2.01034 7.8697 2.03846 7.96388C2.06657 8.05806 2.11315 8.14571 2.17548 8.2217C2.70291 8.87751 3.28978 9.48321 3.92861 10.0311L2.10048 13.1998C2.03477 13.3136 2.00012 13.4427 2 13.5742C1.99988 13.7056 2.03431 13.8348 2.09982 13.9487C2.16533 14.0626 2.25964 14.1573 2.37328 14.2234C2.48693 14.2894 2.61593 14.3244 2.74736 14.3248C2.87818 14.3225 3.00626 14.2869 3.11946 14.2213C3.23266 14.1556 3.32724 14.0622 3.39423 13.9498L5.12861 10.9405C6.14303 11.6233 7.26032 12.1392 8.43798 12.4686L7.88486 15.5623C7.852 15.7585 7.89743 15.9597 8.01138 16.1228C8.12533 16.2858 8.29871 16.3976 8.49423 16.4342H8.62548C8.80201 16.4347 8.97306 16.373 9.10854 16.2598C9.24401 16.1466 9.33522 15.9893 9.36611 15.8155L9.90048 12.778C10.5151 12.8688 11.1354 12.9158 11.7567 12.9186C12.3747 12.9192 12.9919 12.8754 13.6036 12.7873L14.138 15.8248C14.1689 15.9986 14.2601 16.156 14.3956 16.2691C14.531 16.3823 14.7021 16.4441 14.8786 16.4436H15.0099C15.2054 16.407 15.3788 16.2952 15.4927 16.1322C15.6067 15.9691 15.6521 15.7679 15.6192 15.5717L15.0755 12.4873C16.25 12.1529 17.3639 11.634 18.3755 10.9498L20.1005 13.9311C20.1669 14.0461 20.2626 14.1414 20.3779 14.2073C20.4932 14.2732 20.6239 14.3073 20.7567 14.3061C20.8889 14.3071 21.0187 14.2714 21.1317 14.203C21.3028 14.1031 21.4275 13.9395 21.4784 13.7481C21.5293 13.5566 21.5024 13.3528 21.4036 13.1811L19.5849 10.0311Z" fill="#818181"/>
</svg>
