<svg width="24" height="24" viewBox="0 0 24 24" fill="none" xmlns="http://www.w3.org/2000/svg">
<g clip-path="url(#clip0_176_2375)">
<path d="M8 3C8 2.73478 8.10536 2.48043 8.29289 2.29289C8.48043 2.10536 8.73478 2 9 2H23C23.2652 2 23.5196 2.10536 23.7071 2.29289C23.8946 2.48043 24 2.73478 24 3C24 3.26522 23.8946 3.51957 23.7071 3.70711C23.5196 3.89464 23.2652 4 23 4H9C8.73478 4 8.48043 3.89464 8.29289 3.70711C8.10536 3.51957 8 3.26522 8 3ZM23.749 9.662L20.768 6.681C19.826 5.738 18.179 5.737 17.233 6.681L14.294 9.62C14.2012 9.71284 14.1275 9.82307 14.0773 9.94437C14.027 10.0657 14.0012 10.1957 14.0012 10.327C14.0012 10.4583 14.027 10.5883 14.0773 10.7096C14.1275 10.8309 14.2012 10.9412 14.294 11.034C14.3868 11.1268 14.4971 11.2005 14.6184 11.2507C14.7397 11.301 14.8697 11.3268 15.001 11.3268C15.1323 11.3268 15.2623 11.301 15.3836 11.2507C15.5049 11.2005 15.6152 11.1268 15.708 11.034L18.001 8.741V22.948C18.001 23.2132 18.1064 23.4676 18.2939 23.6551C18.4814 23.8426 18.7358 23.948 19.001 23.948C19.2662 23.948 19.5206 23.8426 19.7081 23.6551C19.8956 23.4676 20.001 23.2132 20.001 22.948V8.741L22.336 11.076C22.4287 11.1692 22.5388 11.2431 22.6601 11.2936C22.7815 11.3441 22.9116 11.37 23.043 11.37C23.1744 11.37 23.3045 11.3441 23.4259 11.2936C23.5472 11.2431 23.6573 11.1692 23.75 11.076C23.8429 10.9832 23.9167 10.873 23.967 10.7517C24.0173 10.6304 24.0432 10.5003 24.0432 10.369C24.0432 10.2377 24.0173 10.1076 23.967 9.98631C23.9167 9.86499 23.8419 9.75479 23.749 9.662ZM9 13H12C12.2652 13 12.5196 12.8946 12.7071 12.7071C12.8946 12.5196 13 12.2652 13 12C13 11.7348 12.8946 11.4804 12.7071 11.2929C12.5196 11.1054 12.2652 11 12 11H9C8.73478 11 8.48043 11.1054 8.29289 11.2929C8.10536 11.4804 8 11.7348 8 12C8 12.2652 8.10536 12.5196 8.29289 12.7071C8.48043 12.8946 8.73478 13 9 13ZM6 2.5V3.504C6 4.882 4.879 6.004 3.5 6.004H2.5C1.8372 6.00321 1.20178 5.73956 0.73311 5.27089C0.264441 4.80222 0.000793929 4.1668 0 3.504L0 2.5C0 1.121 1.121 0 2.5 0H3.5C4.879 0 6 1.121 6 2.5ZM4 2.5C4 2.36739 3.94732 2.24021 3.85355 2.14645C3.75979 2.05268 3.63261 2 3.5 2H2.5C2.36739 2 2.24021 2.05268 2.14645 2.14645C2.05268 2.24021 2 2.36739 2 2.5V3.504C2 3.63661 2.05268 3.76379 2.14645 3.85755C2.24021 3.95132 2.36739 4.004 2.5 4.004H3.5C3.63261 4.004 3.75979 3.95132 3.85355 3.85755C3.94732 3.76379 4 3.63661 4 3.504V2.5ZM6 11.5V12.504C6 13.882 4.879 15.004 3.5 15.004H2.5C1.8372 15.0032 1.20178 14.7396 0.73311 14.2709C0.264441 13.8022 0.000793929 13.1668 0 12.504L0 11.5C0 10.122 1.121 9 2.5 9H3.5C4.879 9 6 10.122 6 11.5ZM4 11.5C4 11.3674 3.94732 11.2402 3.85355 11.1464C3.75979 11.0527 3.63261 11 3.5 11H2.5C2.36739 11 2.24021 11.0527 2.14645 11.1464C2.05268 11.2402 2 11.3674 2 11.5V12.504C2 12.6366 2.05268 12.7638 2.14645 12.8576C2.24021 12.9513 2.36739 13.004 2.5 13.004H3.5C3.63261 13.004 3.75979 12.9513 3.85355 12.8576C3.94732 12.7638 4 12.6366 4 12.504V11.5ZM14 20H9C8.73478 20 8.48043 20.1054 8.29289 20.2929C8.10536 20.4804 8 20.7348 8 21C8 21.2652 8.10536 21.5196 8.29289 21.7071C8.48043 21.8946 8.73478 22 9 22H14C14.2652 22 14.5196 21.8946 14.7071 21.7071C14.8946 21.5196 15 21.2652 15 21C15 20.7348 14.8946 20.4804 14.7071 20.2929C14.5196 20.1054 14.2652 20 14 20ZM6 20.5V21.504C6 22.882 4.879 24.004 3.5 24.004H2.5C1.8372 24.0032 1.20178 23.7396 0.73311 23.2709C0.264441 22.8022 0.000793929 22.1668 0 21.504L0 20.5C0 19.122 1.121 18 2.5 18H3.5C4.879 18 6 19.122 6 20.5ZM4 20.5C4 20.3674 3.94732 20.2402 3.85355 20.1464C3.75979 20.0527 3.63261 20 3.5 20H2.5C2.36739 20 2.24021 20.0527 2.14645 20.1464C2.05268 20.2402 2 20.3674 2 20.5V21.504C2 21.6366 2.05268 21.7638 2.14645 21.8576C2.24021 21.9513 2.36739 22.004 2.5 22.004H3.5C3.63261 22.004 3.75979 21.9513 3.85355 21.8576C3.94732 21.7638 4 21.6366 4 21.504V20.5Z" fill="#534E4E"/>
</g>
<defs>
<clipPath id="clip0_176_2375">
<rect width="24" height="24" fill="white"/>
</clipPath>
</defs>
</svg>
