<svg width="1099" height="1078" viewBox="0 0 1099 1078" fill="none" xmlns="http://www.w3.org/2000/svg">
<path d="M934.945 791.295L950.352 794.119L953.792 810.365L957.231 794.119L972.638 791.267L957.287 787.52L953.792 772.197L950.268 787.52L934.945 791.295Z" fill="#FFCD4B"/>
<path d="M299.404 703.604L314.811 706.456L318.251 722.702L321.69 706.456L337.097 703.604L321.774 699.857L318.251 684.534L314.755 699.857L299.404 703.604Z" fill="#FFCD4B"/>
<path d="M753.081 557.187L764.857 559.34L767.486 571.581L770.115 559.34L781.891 557.187L770.179 554.338L767.486 542.771L764.814 554.338L753.081 557.187Z" fill="#FFCD4B"/>
<path d="M1081.35 695.689L1089.97 697.283L1091.9 706.37L1093.83 697.283L1102.41 695.689L1093.85 693.592L1091.9 685.035L1089.94 693.592L1081.35 695.689Z" fill="#FFCD4B"/>
<path d="M428.052 1041.02L436.636 1042.62L438.565 1051.7L440.495 1042.62L449.107 1041.02L440.523 1038.93L438.565 1030.37L436.608 1038.93L428.052 1041.02Z" fill="#FFCD4B"/>
<path d="M1060.3 287.197L1068.91 288.791L1070.84 297.851L1072.74 288.791L1081.36 287.169L1072.8 285.1L1070.84 276.516L1068.86 285.1L1060.3 287.197Z" fill="#FFCD4B"/>
<path d="M90.9517 944.299L99.5639 945.893L101.493 954.953L103.395 945.893L112.007 944.299L103.451 942.202L101.493 933.618L99.508 942.202L90.9517 944.299Z" fill="#FFCD4B"/>
<path d="M1027.08 517.073L1035.69 518.667L1037.59 527.726L1039.52 518.667L1048.13 517.073L1039.58 514.976L1037.59 506.391L1035.63 514.976L1027.08 517.073Z" fill="#FFCD4B"/>
<path d="M663.932 810.365L672.544 811.959L674.473 821.046L676.403 811.959L685.015 810.365L676.431 808.268L674.473 799.711L672.516 808.268L663.932 810.365Z" fill="#FFCD4B"/>
<path d="M350.663 81.6233L359.275 83.2172L361.205 92.2768L363.134 83.2172L371.718 81.6233L363.162 79.5262L361.205 70.9419L359.247 79.5262L350.663 81.6233Z" fill="#FFCD4B"/>
<path d="M687.676 777.398L696.288 778.992L698.217 788.079L700.147 778.992L708.759 777.398L700.175 775.301L698.217 766.717L696.26 775.301L687.676 777.398Z" fill="#FFCD4B"/>
<path d="M407.671 1060.65C408.289 1060.72 408.861 1061.01 409.277 1061.47C409.692 1061.93 409.922 1062.53 409.922 1063.15C409.922 1063.77 409.692 1064.37 409.277 1064.84C408.861 1065.3 408.289 1065.59 407.671 1065.66C407.052 1065.59 406.48 1065.3 406.065 1064.84C405.649 1064.37 405.419 1063.77 405.419 1063.15C405.419 1062.53 405.649 1061.93 406.065 1061.47C406.48 1061.01 407.052 1060.72 407.671 1060.65Z" fill="#FFCD4B"/>
<path d="M852.851 592.596C853.469 592.661 854.041 592.953 854.457 593.415C854.873 593.877 855.103 594.477 855.103 595.098C855.103 595.72 854.873 596.319 854.457 596.782C854.041 597.244 853.469 597.535 852.851 597.601C852.233 597.535 851.661 597.244 851.245 596.782C850.83 596.319 850.6 595.72 850.6 595.098C850.6 594.477 850.83 593.877 851.245 593.415C851.661 592.953 852.233 592.661 852.851 592.596Z" fill="#FFCD4B"/>
<path d="M639.919 802.841C640.579 802.841 641.212 803.104 641.679 803.57C642.146 804.037 642.408 804.67 642.408 805.33C642.408 805.99 642.146 806.623 641.679 807.09C641.212 807.556 640.579 807.819 639.919 807.819C639.259 807.819 638.626 807.556 638.16 807.09C637.693 806.623 637.431 805.99 637.431 805.33C637.431 804.67 637.693 804.037 638.16 803.57C638.626 803.104 639.259 802.841 639.919 802.841Z" fill="#FFCD4B"/>
<path d="M269.789 1041.95C270.449 1041.95 271.082 1042.21 271.549 1042.68C272.016 1043.14 272.278 1043.77 272.278 1044.43C272.278 1045.09 272.016 1045.73 271.549 1046.19C271.082 1046.66 270.449 1046.92 269.789 1046.92C269.129 1046.92 268.496 1046.66 268.03 1046.19C267.563 1045.73 267.301 1045.09 267.301 1044.43C267.301 1043.77 267.563 1043.14 268.03 1042.68C268.496 1042.21 269.129 1041.95 269.789 1041.95Z" fill="#FFCD4B"/>
<path d="M971.613 625.313C972.273 625.313 972.906 625.575 973.372 626.042C973.839 626.508 974.101 627.141 974.101 627.801C974.101 628.461 973.839 629.094 973.372 629.561C972.906 630.028 972.273 630.29 971.613 630.29C970.953 630.29 970.32 630.028 969.853 629.561C969.386 629.094 969.124 628.461 969.124 627.801C969.124 627.141 969.386 626.508 969.853 626.042C970.32 625.575 970.953 625.313 971.613 625.313Z" fill="#FFCD4B"/>
<path d="M470.199 1015.77C470.666 1015.77 471.114 1015.96 471.445 1016.29C471.775 1016.62 471.961 1017.07 471.961 1017.53C471.961 1018 471.775 1018.45 471.445 1018.78C471.114 1019.11 470.666 1019.29 470.199 1019.29C469.732 1019.29 469.284 1019.11 468.953 1018.78C468.623 1018.45 468.438 1018 468.438 1017.53C468.438 1017.07 468.623 1016.62 468.953 1016.29C469.284 1015.96 469.732 1015.77 470.199 1015.77Z" fill="#FFCD4B"/>
<path d="M798.628 666.528C799.095 666.528 799.543 666.714 799.873 667.044C800.204 667.375 800.389 667.823 800.389 668.29C800.389 668.757 800.204 669.205 799.873 669.536C799.543 669.866 799.095 670.052 798.628 670.052C798.161 670.052 797.713 669.866 797.382 669.536C797.052 669.205 796.866 668.757 796.866 668.29C796.866 667.823 797.052 667.375 797.382 667.044C797.713 666.714 798.161 666.528 798.628 666.528Z" fill="#FFCD4B"/>
<path d="M713.24 819.285C713.707 819.285 714.155 819.471 714.486 819.801C714.816 820.132 715.002 820.58 715.002 821.047C715.002 821.514 714.816 821.962 714.486 822.293C714.155 822.623 713.707 822.809 713.24 822.809C712.773 822.809 712.325 822.623 711.995 822.293C711.664 821.962 711.479 821.514 711.479 821.047C711.479 820.58 711.664 820.132 711.995 819.801C712.325 819.471 712.773 819.285 713.24 819.285Z" fill="#FFCD4B"/>
<path d="M573.572 789.503C574.005 789.558 574.403 789.768 574.691 790.095C574.979 790.422 575.139 790.843 575.139 791.279C575.139 791.715 574.979 792.136 574.691 792.463C574.403 792.79 574.005 793 573.572 793.054C573.14 793 572.742 792.79 572.453 792.463C572.165 792.136 572.006 791.715 572.006 791.279C572.006 790.843 572.165 790.422 572.453 790.095C572.742 789.768 573.14 789.558 573.572 789.503Z" fill="#FFCD4B"/>
<path d="M738.689 634.454C739.957 634.454 741.173 634.958 742.07 635.855C742.966 636.752 743.47 637.968 743.47 639.236C743.47 640.504 742.966 641.72 742.07 642.617C741.173 643.514 739.957 644.017 738.689 644.017C737.421 644.017 736.204 643.514 735.308 642.617C734.411 641.72 733.907 640.504 733.907 639.236C733.907 637.968 734.411 636.752 735.308 635.855C736.204 634.958 737.421 634.454 738.689 634.454Z" fill="#FFCD4B"/>
<path d="M524.333 149.24L531.163 150.531L532.688 157.876L534.212 150.531L541.043 149.24L534.237 147.543L532.688 140.591L531.126 147.543L524.333 149.24Z" fill="#FFCD4B"/>
<path d="M874.081 36.3064L880.911 37.5981L882.436 44.9429L883.961 37.5981L890.791 36.3064L883.985 34.6095L882.436 27.6572L880.874 34.6095L874.081 36.3064Z" fill="#FFCD4B"/>
<path d="M552.511 10.6814L561.123 12.2753L563.052 21.3349L564.982 12.2753L573.566 10.6814L565.01 8.5843L563.052 0L561.095 8.5843L552.511 10.6814Z" fill="#FFCD4B"/>
<path d="M30.6268 243.604C31.2868 243.604 31.9198 243.866 32.3865 244.333C32.8532 244.799 33.1154 245.432 33.1154 246.092C33.1154 246.752 32.8532 247.385 32.3865 247.852C31.9198 248.319 31.2868 248.581 30.6268 248.581C29.9668 248.581 29.3338 248.319 28.8671 247.852C28.4004 247.385 28.1382 246.752 28.1382 246.092C28.1382 245.432 28.4004 244.799 28.8671 244.333C29.3338 243.866 29.9668 243.604 30.6268 243.604Z" fill="#FFCD4B"/>
<path d="M69.8391 905.46C70.4572 905.526 71.0292 905.818 71.445 906.28C71.8607 906.742 72.0907 907.341 72.0907 907.963C72.0907 908.585 71.8607 909.184 71.445 909.646C71.0292 910.108 70.4572 910.4 69.8391 910.466C69.221 910.4 68.6489 910.108 68.2332 909.646C67.8174 909.184 67.5874 908.585 67.5874 907.963C67.5874 907.341 67.8174 906.742 68.2332 906.28C68.6489 905.818 69.221 905.526 69.8391 905.46Z" fill="#FFCD4B"/>
<path d="M2.25167 1029.33C2.86979 1029.4 3.44183 1029.69 3.85757 1030.15C4.27331 1030.61 4.50334 1031.21 4.50334 1031.83C4.50334 1032.46 4.27331 1033.06 3.85757 1033.52C3.44183 1033.98 2.86979 1034.27 2.25167 1034.34C1.63355 1034.27 1.06152 1033.98 0.645778 1033.52C0.230036 1033.06 0 1032.46 0 1031.83C0 1031.21 0.230036 1030.61 0.645778 1030.15C1.06152 1029.69 1.63355 1029.4 2.25167 1029.33Z" fill="#FFCD4B"/>
<path d="M130.061 452.814C130.679 452.88 131.251 453.171 131.667 453.634C132.083 454.096 132.313 454.695 132.313 455.317C132.313 455.938 132.083 456.538 131.667 457C131.251 457.462 130.679 457.754 130.061 457.819C129.443 457.754 128.871 457.462 128.455 457C128.04 456.538 127.81 455.938 127.81 455.317C127.81 454.695 128.04 454.096 128.455 453.634C128.871 453.171 129.443 452.88 130.061 452.814Z" fill="#FFCD4B"/>
<path d="M228.804 786.485C229.236 786.54 229.634 786.75 229.922 787.077C230.211 787.404 230.37 787.825 230.37 788.261C230.37 788.697 230.211 789.118 229.922 789.445C229.634 789.772 229.236 789.982 228.804 790.037C228.371 789.982 227.973 789.772 227.685 789.445C227.396 789.118 227.237 788.697 227.237 788.261C227.237 787.825 227.396 787.404 227.685 787.077C227.973 786.75 228.371 786.54 228.804 786.485Z" fill="#FFCD4B"/>
<path d="M601.185 1012.78C601.653 1012.78 602.101 1012.97 602.431 1013.3C602.761 1013.63 602.947 1014.07 602.947 1014.54C602.947 1015.01 602.761 1015.46 602.431 1015.79C602.101 1016.12 601.653 1016.3 601.185 1016.3C600.718 1016.3 600.27 1016.12 599.94 1015.79C599.609 1015.46 599.424 1015.01 599.424 1014.54C599.424 1014.07 599.609 1013.63 599.94 1013.3C600.27 1012.97 600.718 1012.78 601.185 1012.78Z" fill="#FFCD4B"/>
<path d="M544.45 96.9998C544.917 96.9998 545.365 97.1854 545.696 97.5157C546.026 97.8461 546.212 98.2941 546.212 98.7613C546.212 99.2286 546.026 99.6766 545.696 100.007C545.365 100.337 544.917 100.523 544.45 100.523C543.983 100.523 543.535 100.337 543.204 100.007C542.874 99.6766 542.688 99.2286 542.688 98.7613C542.688 98.2941 542.874 97.8461 543.204 97.5157C543.535 97.1854 543.983 96.9998 544.45 96.9998Z" fill="#FFCD4B"/>
<path d="M972.066 53.5857C972.534 53.5857 972.982 53.7713 973.312 54.1017C973.642 54.432 973.828 54.8801 973.828 55.3473C973.828 55.8145 973.642 56.2626 973.312 56.5929C972.982 56.9233 972.534 57.1089 972.066 57.1089C971.599 57.1089 971.151 56.9233 970.821 56.5929C970.49 56.2626 970.305 55.8145 970.305 55.3473C970.305 54.8801 970.49 54.432 970.821 54.1017C971.151 53.7713 971.599 53.5857 972.066 53.5857Z" fill="#FFCD4B"/>
<path d="M1025.65 210.886C1026.12 210.886 1026.57 211.071 1026.9 211.402C1027.23 211.732 1027.41 212.18 1027.41 212.647C1027.41 213.115 1027.23 213.563 1026.9 213.893C1026.57 214.223 1026.12 214.409 1025.65 214.409C1025.19 214.409 1024.74 214.223 1024.41 213.893C1024.08 213.563 1023.89 213.115 1023.89 212.647C1023.89 212.18 1024.08 211.732 1024.41 211.402C1024.74 211.071 1025.19 210.886 1025.65 210.886Z" fill="#FFCD4B"/>
<path d="M438.572 723.764C439.841 723.764 441.057 724.268 441.953 725.165C442.85 726.062 443.354 727.278 443.354 728.546C443.354 729.814 442.85 731.03 441.953 731.927C441.057 732.824 439.841 733.327 438.572 733.327C437.304 733.327 436.088 732.824 435.191 731.927C434.295 731.03 433.791 729.814 433.791 728.546C433.791 727.278 434.295 726.062 435.191 725.165C436.088 724.268 437.304 723.764 438.572 723.764Z" fill="#FFCD4B"/>
<path d="M1068.73 362.301C1069.94 362.393 1071.07 362.939 1071.89 363.828C1072.71 364.717 1073.17 365.884 1073.17 367.096C1073.17 368.309 1072.71 369.476 1071.89 370.365C1071.07 371.254 1069.94 371.8 1068.73 371.892C1067.52 371.8 1066.39 371.254 1065.57 370.365C1064.74 369.476 1064.29 368.309 1064.29 367.096C1064.29 365.884 1064.74 364.717 1065.57 363.828C1066.39 362.939 1067.52 362.393 1068.73 362.301Z" fill="#FFCD4B"/>
<path d="M89.7214 781.701C90.9896 781.701 92.2057 782.205 93.1024 783.102C93.9991 783.999 94.5029 785.215 94.5029 786.483C94.5029 787.751 93.9991 788.967 93.1024 789.864C92.2057 790.761 90.9896 791.264 89.7214 791.264C88.4533 791.264 87.2371 790.761 86.3404 789.864C85.4437 788.967 84.9399 787.751 84.9399 786.483C84.9399 785.215 85.4437 783.999 86.3404 783.102C87.2371 782.205 88.4533 781.701 89.7214 781.701Z" fill="#FFCD4B"/>
<path d="M491.587 597.604L500.199 599.198L502.129 608.258L504.058 599.198L512.67 597.604L504.086 595.507L502.129 586.923L500.171 595.507L491.587 597.604Z" fill="#FFCD4B"/>
<path d="M674.484 1031.77L683.097 1033.36L685.026 1042.42L686.927 1033.36L695.54 1031.74L686.983 1029.67L685.026 1021.08L683.041 1029.67L674.484 1031.77Z" fill="#FFCD4B"/>
<path d="M712.619 919.946C713.237 920.011 713.809 920.303 714.225 920.765C714.641 921.227 714.871 921.827 714.871 922.449C714.871 923.07 714.641 923.67 714.225 924.132C713.809 924.594 713.237 924.886 712.619 924.951C712.001 924.886 711.429 924.594 711.013 924.132C710.597 923.67 710.367 923.07 710.367 922.449C710.367 921.827 710.597 921.227 711.013 920.765C711.429 920.303 712.001 920.011 712.619 919.946Z" fill="#FFCD4B"/>
<path d="M809.816 853.566C810.434 853.632 811.006 853.924 811.422 854.386C811.838 854.848 812.068 855.447 812.068 856.069C812.068 856.691 811.838 857.29 811.422 857.752C811.006 858.214 810.434 858.506 809.816 858.572C809.198 858.506 808.626 858.214 808.21 857.752C807.795 857.29 807.564 856.691 807.564 856.069C807.564 855.447 807.795 854.848 808.21 854.386C808.626 853.924 809.198 853.632 809.816 853.566Z" fill="#FFCD4B"/>
<path d="M502.119 968.182L510.731 969.776L512.661 978.863L514.59 969.776L523.202 968.182L514.618 966.085L512.661 957.5L510.703 966.085L502.119 968.182Z" fill="#FFCD4B"/>
<path d="M916.549 861.561C917.016 861.561 917.464 861.746 917.794 862.076C918.125 862.407 918.31 862.855 918.31 863.322C918.31 863.789 918.125 864.237 917.794 864.568C917.464 864.898 917.016 865.084 916.549 865.084C916.082 865.084 915.633 864.898 915.303 864.568C914.973 864.237 914.787 863.789 914.787 863.322C914.787 862.855 914.973 862.407 915.303 862.076C915.633 861.746 916.082 861.561 916.549 861.561Z" fill="#FFCD4B"/>
<path d="M165.35 561.306L173.962 562.9L175.863 571.96L177.793 562.9L186.405 561.306L177.849 559.209L175.863 550.625L173.906 559.209L165.35 561.306Z" fill="#FFCD4B"/>
<path d="M65.8089 698.63C66.4689 698.63 67.1019 698.892 67.5686 699.358C68.0353 699.825 68.2975 700.458 68.2975 701.118C68.2975 701.778 68.0353 702.411 67.5686 702.878C67.1019 703.345 66.4689 703.607 65.8089 703.607C65.1489 703.607 64.5159 703.345 64.0492 702.878C63.5825 702.411 63.3203 701.778 63.3203 701.118C63.3203 700.458 63.5825 699.825 64.0492 699.358C64.5159 698.892 65.1489 698.63 65.8089 698.63Z" fill="#FFCD4B"/>
<path d="M409.963 514.834C410.623 514.834 411.256 515.096 411.723 515.563C412.19 516.029 412.452 516.662 412.452 517.322C412.452 517.982 412.19 518.615 411.723 519.082C411.256 519.549 410.623 519.811 409.963 519.811C409.303 519.811 408.67 519.549 408.204 519.082C407.737 518.615 407.475 517.982 407.475 517.322C407.475 516.662 407.737 516.029 408.204 515.563C408.67 515.096 409.303 514.834 409.963 514.834Z" fill="#FFCD4B"/>
<path d="M117.655 262.7C118.088 262.754 118.486 262.965 118.774 263.292C119.062 263.619 119.221 264.04 119.221 264.476C119.221 264.911 119.062 265.332 118.774 265.659C118.486 265.986 118.088 266.197 117.655 266.251C117.223 266.197 116.825 265.986 116.536 265.659C116.248 265.332 116.089 264.911 116.089 264.476C116.089 264.04 116.248 263.619 116.536 263.292C116.825 262.965 117.223 262.754 117.655 262.7Z" fill="#FFCD4B"/>
<path d="M95.0217 246.402C96.2898 246.402 97.506 246.906 98.4027 247.803C99.2994 248.7 99.8032 249.916 99.8032 251.184C99.8032 252.452 99.2994 253.668 98.4027 254.565C97.506 255.462 96.2898 255.965 95.0217 255.965C93.7536 255.965 92.5374 255.462 91.6407 254.565C90.744 253.668 90.2402 252.452 90.2402 251.184C90.2402 249.916 90.744 248.7 91.6407 247.803C92.5374 246.906 93.7536 246.402 95.0217 246.402Z" fill="#FFCD4B"/>
<path d="M1073.33 35.2625C1074.6 35.2625 1075.82 35.7662 1076.72 36.6629C1077.61 37.5596 1078.12 38.7758 1078.12 40.0439C1078.12 41.3121 1077.61 42.5282 1076.72 43.425C1075.82 44.3217 1074.6 44.8254 1073.33 44.8254C1072.07 44.8254 1070.85 44.3217 1069.95 43.425C1069.06 42.5282 1068.55 41.3121 1068.55 40.0439C1068.55 38.7758 1069.06 37.5596 1069.95 36.6629C1070.85 35.7662 1072.07 35.2625 1073.33 35.2625Z" fill="#FFCD4B"/>
</svg>
