<svg width="445" height="445" viewBox="0 0 445 445" fill="none" xmlns="http://www.w3.org/2000/svg">
<path d="M277.083 97.1081C277.932 97.0011 278.793 97.1273 279.575 97.473C279.647 97.473 280.172 97.7489 279.833 97.5798C280.048 97.6864 280.256 97.8052 280.456 97.9358C280.659 98.065 280.855 98.2046 281.044 98.3541C281.498 98.6923 280.884 98.1316 281.266 98.5499C281.809 99.0814 282.233 99.7213 282.512 100.428C282.769 101.127 282.863 101.876 282.788 102.617C282.788 102.822 282.788 103.018 282.726 103.222C282.779 102.822 282.628 103.578 282.61 103.658C282.592 103.739 282.486 104.041 282.414 104.228C282.343 104.415 282.156 104.789 282.325 104.468C282.117 104.883 281.86 105.271 281.56 105.625C281.809 105.341 281.435 105.75 281.373 105.803C281.311 105.857 280.982 106.142 280.786 106.311C280.59 106.48 280.955 106.248 280.572 106.462L280.065 106.756C279.83 106.875 279.59 106.982 279.344 107.076C279.691 106.951 279.113 107.147 279.095 107.147C278.872 107.21 278.65 107.254 278.427 107.299C278.347 107.299 277.706 107.37 278.08 107.352C277.622 107.371 277.164 107.351 276.71 107.29C276.17 107.27 275.644 107.465 275.247 107.832C274.85 108.199 274.615 108.708 274.591 109.248C274.579 109.784 274.775 110.305 275.139 110.7C275.502 111.095 276.005 111.334 276.54 111.366C278.519 111.616 280.526 111.215 282.257 110.225C283.989 109.234 285.351 107.708 286.139 105.875C286.927 104.043 287.097 102.003 286.624 100.066C286.151 98.1278 285.061 96.3962 283.518 95.1323C281.773 93.6859 279.553 92.9376 277.288 93.0319C276.751 93.0259 276.232 93.2253 275.836 93.5891C275.441 93.953 275.199 94.454 275.161 94.9899C275.144 95.5293 275.34 96.0537 275.706 96.45C276.072 96.8463 276.58 97.0826 277.119 97.1081H277.083Z" fill="#545C61"/>
<path d="M258.454 70.1709L180.567 71.1225C171.042 71.2389 163.414 79.055 163.531 88.5802L164.921 202.412C165.038 211.937 172.854 219.564 182.379 219.448L260.266 218.496C269.791 218.38 277.419 210.564 277.302 201.039L275.911 87.2071C275.795 77.6819 267.979 70.0545 258.454 70.1709Z" fill="#FF5E5E"/>
<path d="M173.701 131.062C173.693 130.91 173.693 130.759 173.701 130.608V129.264C173.701 128.062 173.701 126.327 173.656 124.102C173.656 119.598 173.656 113.11 173.585 105.109C173.585 101.104 173.585 96.7075 173.585 91.9994C173.531 90.7605 173.814 89.53 174.404 88.4394C175.016 87.3095 175.944 86.3818 177.074 85.7694C177.656 85.4683 178.28 85.2581 178.925 85.1464C179.57 85.0493 180.223 85.0135 180.874 85.0396H184.799H219.287H253.783H257.708C258.363 85.0133 259.018 85.0491 259.666 85.1464C260.309 85.2582 260.93 85.4683 261.508 85.7694C262.641 86.3789 263.569 87.3073 264.178 88.4394C264.771 89.529 265.055 90.7603 264.997 91.9994C264.997 96.7075 264.997 101.104 264.997 105.109C264.997 113.119 264.935 119.598 264.917 124.102C264.917 126.327 264.917 128.062 264.873 129.264V130.608C264.873 130.91 264.873 131.062 264.873 131.062C264.865 130.91 264.865 130.759 264.873 130.608C264.873 130.287 264.873 129.842 264.873 129.264C264.873 128.062 264.873 126.327 264.828 124.102C264.828 119.598 264.784 113.119 264.757 105.109C264.757 101.104 264.757 96.7075 264.757 91.9994C264.805 90.8278 264.535 89.6649 263.974 88.6352C263.378 87.5864 262.491 86.7331 261.419 86.1788C260.877 85.8978 260.295 85.7027 259.693 85.6003C259.069 85.5 258.437 85.4672 257.806 85.5024H253.881H219.385H184.897H180.972C180.345 85.4688 179.716 85.4986 179.094 85.5914C178.475 85.6951 177.874 85.8932 177.314 86.1788C176.246 86.7345 175.362 87.5877 174.769 88.6352C174.208 89.6649 173.937 90.8278 173.986 91.9994C173.986 96.7075 173.986 101.104 173.986 105.109C173.986 113.119 173.923 119.598 173.906 124.102C173.906 126.327 173.906 128.062 173.906 129.264V130.608C173.719 130.91 173.701 131.062 173.701 131.062Z" fill="#545C61"/>
<path opacity="0.3" d="M272.536 214.321C272.794 214.036 268.086 160.129 268.086 160.129L256.587 157.138L260.307 208.545L266.608 217.739C268.847 217.134 270.89 215.956 272.536 214.321Z" fill="#010101"/>
<path d="M255.27 97.1613C256.415 97.1613 257.343 96.2329 257.343 95.0876C257.343 93.9423 256.415 93.0139 255.27 93.0139C254.124 93.0139 253.196 93.9423 253.196 95.0876C253.196 96.2329 254.124 97.1613 255.27 97.1613Z" fill="#545C61"/>
<path d="M255.27 104.308C256.415 104.308 257.343 103.38 257.343 102.234C257.343 101.089 256.415 100.161 255.27 100.161C254.124 100.161 253.196 101.089 253.196 102.234C253.196 103.38 254.124 104.308 255.27 104.308Z" fill="#545C61"/>
<path d="M186.624 108.179C186.624 108.179 175.054 111.481 172.384 113.057C169.714 114.632 145.079 138.929 144.207 139.632C143.584 140.122 134.577 130.18 129.361 123.55L122.633 119.785L107.183 131.72L107.521 139.659C113.244 148.746 124.76 166.27 130.127 170.586C137.247 176.353 146.877 176.701 154.468 173.532C158.963 171.663 177.76 156.871 177.76 156.871L187.71 153.205L186.624 108.179Z" fill="white"/>
<path d="M164.65 140.709C165.079 141.572 165.448 142.465 165.754 143.379L168.21 149.92L170.729 156.426C171.121 157.294 171.457 158.186 171.734 159.096C171.217 158.28 170.779 157.416 170.426 156.515C169.687 154.878 168.744 152.59 167.756 150.036C166.768 147.482 165.976 145.15 165.415 143.45C165.082 142.56 164.826 141.643 164.65 140.709Z" fill="#545C61"/>
<path d="M168.521 163.991C168.154 163.703 167.817 163.378 167.516 163.021C166.884 162.381 166.02 161.41 164.997 160.164C159.663 153.652 155.724 146.111 153.427 138.012C152.991 136.464 152.688 135.191 152.537 134.31C152.422 133.858 152.35 133.396 152.323 132.93C152.49 133.367 152.621 133.816 152.715 134.274C152.937 135.164 153.284 136.393 153.756 137.914C154.986 141.905 156.571 145.777 158.491 149.484C160.425 153.179 162.689 156.691 165.255 159.978C166.234 161.241 167.035 162.247 167.649 162.923C167.965 163.258 168.257 163.615 168.521 163.991Z" fill="#545C61"/>
<path d="M143.29 147.153C143.167 145.875 143.2 144.587 143.388 143.317C143.426 142.029 143.618 140.75 143.957 139.508C144.074 140.789 144.038 142.08 143.851 143.352C143.817 144.637 143.628 145.913 143.29 147.153Z" fill="#545C61"/>
<path d="M145.497 138.448C144.91 138.956 147.598 156.987 161.054 169.403L164.223 167.133C164.223 167.133 149.022 152.893 148.203 135.796L145.497 138.448Z" fill="#FF5E5E"/>
<path d="M129.397 123.55C129.477 123.657 124.644 127.341 118.601 131.782C112.558 136.223 107.592 139.792 107.521 139.65C107.45 139.508 112.282 135.859 118.325 131.409C124.368 126.959 129.326 123.452 129.397 123.55Z" fill="#545C61"/>
<path d="M112.736 147.509C112.909 147.248 113.113 147.009 113.341 146.797L115.121 144.945C116.661 143.388 118.806 141.243 121.253 138.84V139.151L120.292 137.95L118.948 136.295H119.26C116.59 138.164 114.205 139.801 112.487 140.958L110.458 142.293C110.22 142.47 109.964 142.619 109.692 142.738C109.89 142.515 110.118 142.321 110.369 142.16L112.318 140.709C113.982 139.49 116.323 137.808 118.993 135.921L119.171 135.796L119.304 135.956L120.648 137.612L121.601 138.778L121.734 138.938L121.583 139.089C119.135 141.483 116.937 143.539 115.353 145.088L113.466 146.868C113.252 147.113 113.007 147.328 112.736 147.509Z" fill="#545C61"/>
<path d="M107.441 137.914L127.759 122.633L122.669 119.785L107.183 131.72L107.441 137.914Z" fill="#FF5E5E"/>
<path d="M121.404 101.576C120.995 101.068 120.577 100.57 120.141 100.089C119.58 100.669 119.095 101.318 118.699 102.021C117.443 104.024 116.436 106.173 115.7 108.42C115.7 108.42 110.288 99.9292 109.265 97.989C108.226 95.9742 107.061 94.0271 105.776 92.1595C103.208 91.8845 100.611 92.1887 98.1755 93.0495C100.489 96.8053 104.895 103.338 103.987 104.237C103.24 104.976 98.9231 98.6298 95.0872 94.5892L94.6155 94.9007C93.1531 95.9683 91.8805 97.274 90.8508 98.7633C93.5208 101.78 96.6536 105.278 96.5557 105.999C96.4578 106.72 92.9957 103.605 89.4357 101.051C88.8116 102.245 88.2877 103.49 87.8693 104.771C87.6112 105.554 87.3976 106.355 87.2018 107.165C90.6639 110.031 95.7725 112.621 93.2983 112.505C91.7853 112.443 89.053 111.108 86.6055 110.102C86.3207 111.784 86.116 113.484 85.938 115.184C88.9462 117.035 92.3549 118.032 93.5119 119.687C94.7846 121.467 97.864 127.341 101.78 129.477C105.696 131.613 107.182 131.747 107.182 131.747L122.437 121.209C122.437 121.209 123.567 114.534 123.87 110.974C124.129 108.933 124.643 106.933 125.401 105.02C123.71 104.557 122.517 102.973 121.404 101.576Z" fill="#545C61"/>
<path d="M89.4361 101.006C86.2855 98.701 83.1349 96.7608 82.4674 98.1492C81.0612 101.068 82.4674 101.709 85.2709 105.216C85.8548 105.915 86.5078 106.553 87.22 107.12C87.4158 106.311 87.6294 105.51 87.8875 104.726C88.3001 103.446 88.8181 102.201 89.4361 101.006Z" fill="#C0D2DA"/>
<path d="M105.776 92.1596C103.284 88.5996 99.9201 85.2176 97.0365 87.1934C97.0365 87.1934 95.5324 88.4572 97.4459 91.7947C97.6506 92.1418 97.8998 92.5601 98.1757 93.0051C100.614 92.1593 103.211 91.8704 105.776 92.1596Z" fill="#C0D2DA"/>
<path d="M81.6751 109.595C80.9275 112.007 81.9243 112.416 85.1105 114.623C85.3775 114.813 85.6534 114.991 85.9382 115.157C86.1162 113.457 86.3209 111.757 86.6057 110.075C84.1849 109.078 82.0489 108.393 81.6751 109.595Z" fill="#C0D2DA"/>
<path d="M125.401 105.02C126.068 103.062 126.549 101.407 125.837 100.054C124.751 97.9892 122.277 97.918 120.141 100.107C120.577 100.588 121.031 101.086 121.404 101.594C122.517 102.973 123.71 104.557 125.401 105.02Z" fill="#C0D2DA"/>
<path d="M94.589 94.8562L95.0607 94.5447C93.9939 93.2921 92.6942 92.2584 91.2337 91.5009C87.1397 89.9345 86.0984 92.6579 87.1842 94.4201C88.3223 95.9151 89.5373 97.3499 90.8243 98.7188C91.854 97.2295 93.1266 95.9238 94.589 94.8562Z" fill="#C0D2DA"/>
<path d="M110.057 122.366C110.057 122.366 109.888 122.188 109.701 121.779C109.442 121.213 109.262 120.614 109.167 119.999C109.033 119.072 109.069 118.128 109.274 117.213C109.531 116.084 110.053 115.031 110.796 114.143C111.915 112.799 113.466 111.883 115.184 111.553L115.032 111.722C115.102 110.525 115.263 109.335 115.513 108.162C115.577 109.349 115.541 110.54 115.406 111.722V111.864H115.264C113.659 112.241 112.219 113.128 111.161 114.392C110.531 115.155 110.059 116.036 109.775 116.983C109.491 117.931 109.399 118.926 109.505 119.91C109.624 120.742 109.808 121.563 110.057 122.366Z" fill="#C0D2DA"/>
<path d="M106.933 105.287C106.933 105.367 105.999 105.59 104.566 106.177C102.705 106.982 100.993 108.095 99.502 109.47C98.0208 110.857 96.7895 112.489 95.8619 114.294C95.1499 115.682 94.874 116.626 94.7939 116.599C94.7138 116.572 94.7939 116.35 94.9185 115.923C95.0825 115.311 95.2999 114.716 95.5682 114.143C96.435 112.246 97.6672 110.538 99.1943 109.118C100.721 107.698 102.514 106.593 104.468 105.866C105.046 105.643 105.642 105.467 106.248 105.34C106.472 105.287 106.704 105.269 106.933 105.287Z" fill="#C0D2DA"/>
<path d="M248.443 80.1534C248.31 80.1534 248.212 75.8725 248.212 70.5859C248.212 65.2993 248.31 61.0095 248.443 61.0095C248.577 61.0095 248.675 65.2993 248.675 70.5859C248.675 75.8725 248.568 80.1534 248.443 80.1534Z" fill="#545C61"/>
<path d="M182.352 71.387C182.352 71.387 180.002 31.6663 215.949 31.6663C253.374 31.6663 251.549 73.0958 251.549 76.3087C251.549 76.3087 254.264 106.569 218.174 107.209C180.296 107.913 182.352 71.387 182.352 71.387Z" fill="white"/>
<path d="M184.906 70.1411C184.906 70.1411 181.729 40.5397 216.27 40.5308C252.173 40.5308 248.995 71.4672 248.995 73.9681C248.995 73.9681 250.375 96.9212 216.955 97.5887C183.536 98.2562 184.906 70.1411 184.906 70.1411Z" fill="#545C61"/>
<path d="M249.004 105.296L244.136 97.2415L191.599 97.5975L188.377 107.218L182.574 110.743L218.842 116.554L255.679 110.858L249.004 105.296Z" fill="white"/>
<path d="M255.919 51.8247H255.537C252.573 51.8247 250.17 54.2275 250.17 57.1914V76.7625C250.17 79.7265 252.573 82.1292 255.537 82.1292H255.919C258.883 82.1292 261.286 79.7265 261.286 76.7625V57.1914C261.286 54.2275 258.883 51.8247 255.919 51.8247Z" fill="white"/>
<path d="M248.951 68.1561C248.922 68.0699 248.907 67.9799 248.906 67.8891C248.906 67.6844 248.906 67.4174 248.844 67.0881C248.764 66.385 248.764 65.3081 248.568 64.0265C248.488 63.359 248.39 62.6292 248.292 61.8193C248.194 61.0094 247.972 60.155 247.794 59.2294C247.616 58.3038 247.313 57.3337 247.046 56.2924L246.53 54.726C246.441 54.459 246.343 54.1831 246.254 53.9072C246.165 53.6313 246.031 53.3732 245.916 53.0973C243.886 47.8769 240.367 43.3678 235.796 40.13C230.122 36.277 223.44 34.1756 216.581 34.0869C216.181 34.0869 215.771 34.0869 215.407 34.0869C213.66 34.0535 211.915 34.2268 210.209 34.6031C208.536 34.9359 206.891 35.394 205.287 35.9737C202.252 37.0448 199.393 38.5626 196.806 40.4771C194.473 42.2306 192.422 44.3317 190.727 46.7071C189.255 48.7777 188.059 51.0304 187.167 53.4088C185.937 56.8681 185.209 60.4855 185.004 64.1511C184.888 65.4416 184.915 66.4562 184.897 67.1415C184.897 67.4619 184.897 67.72 184.897 67.9158C184.905 68.0047 184.905 68.094 184.897 68.1828C184.886 68.0942 184.886 68.0045 184.897 67.9158C184.897 67.72 184.897 67.4619 184.897 67.1415C184.897 66.4562 184.835 65.4416 184.897 64.1422C185.032 60.4445 185.719 56.7878 186.935 53.2931C187.816 50.8792 189.013 48.5927 190.495 46.4935C192.2 44.0821 194.268 41.9502 196.628 40.1745C199.209 38.2425 202.061 36.7012 205.091 35.5999C206.716 35.0113 208.382 34.5443 210.075 34.2026C211.829 33.8184 213.621 33.6421 215.415 33.6775C215.807 33.6775 216.208 33.6775 216.626 33.6775C223.576 33.7717 230.343 35.9141 236.081 39.8363C238.549 41.5764 240.717 43.7078 242.498 46.1464C244.053 48.2609 245.316 50.5749 246.254 53.0261L246.592 53.8538L246.859 54.6726C247.037 55.2155 247.206 55.7495 247.366 56.2657C247.633 57.307 247.892 58.2949 248.096 59.2294C248.301 60.1639 248.408 61.0094 248.55 61.846C248.693 62.6826 248.719 63.3946 248.79 64.0621C248.96 65.3882 248.933 66.4384 248.977 67.1326C248.977 67.4708 248.977 67.7289 248.977 67.9336C248.975 68.0084 248.966 68.0829 248.951 68.1561Z" fill="#545C61"/>
<path d="M191.029 54.3434C187.122 60.9383 186.499 69.1352 188.137 76.5934C196.147 77.4834 204.317 73.5229 209.497 67.3018C214.677 61.0807 216.964 51.2818 216.902 43.1739C203.098 43.1561 194.91 47.7485 191.029 54.3434Z" fill="#C0D2DA"/>
<path d="M223.585 43.8503C230.287 53.4 227.76 71.2 227.76 71.2H233.99C236.66 56.0077 231.542 45.3099 231.542 45.3099L223.585 43.8503Z" fill="#C0D2DA"/>
<path d="M236.375 66.9814C236.864 66.9814 236.9 73.3983 235.369 77.4656H239.41C239.97 77.4656 241.475 71.2356 240.825 66.9814H236.375Z" fill="#C0D2DA"/>
<path d="M260.939 60.5201C259.169 60.7526 257.382 60.83 255.599 60.7515C253.815 60.8297 252.029 60.7523 250.259 60.5201C252.029 60.2931 253.815 60.2157 255.599 60.2887C257.382 60.2154 259.168 60.2928 260.939 60.5201Z" fill="#545C61"/>
<path d="M257.842 66.9815C257.842 67.4004 257.718 67.81 257.485 68.1583C257.252 68.5066 256.921 68.7781 256.534 68.9384C256.147 69.0988 255.721 69.1407 255.31 69.059C254.9 68.9773 254.522 68.7755 254.226 68.4793C253.93 68.183 253.728 67.8056 253.646 67.3947C253.564 66.9838 253.606 66.5579 253.767 66.1709C253.927 65.7838 254.199 65.453 254.547 65.2203C254.895 64.9875 255.305 64.8633 255.724 64.8633C256.285 64.8633 256.824 65.0865 257.221 65.4837C257.619 65.8809 257.842 66.4197 257.842 66.9815Z" fill="#545C61"/>
<path d="M257.842 74.493C257.842 74.9119 257.718 75.3214 257.485 75.6698C257.252 76.0181 256.921 76.2896 256.534 76.4499C256.147 76.6103 255.721 76.6522 255.31 76.5705C254.9 76.4887 254.522 76.287 254.226 75.9908C253.93 75.6945 253.728 75.3171 253.646 74.9062C253.564 74.4953 253.606 74.0694 253.767 73.6824C253.927 73.2953 254.199 72.9645 254.547 72.7318C254.895 72.499 255.305 72.3748 255.724 72.3748C256.002 72.3736 256.278 72.4276 256.536 72.5336C256.793 72.6396 257.027 72.7956 257.224 72.9926C257.421 73.1895 257.577 73.4235 257.683 73.681C257.789 73.9385 257.843 74.2145 257.842 74.493Z" fill="#545C61"/>
<path d="M178.383 51.8247H178C175.036 51.8247 172.633 54.2275 172.633 57.1914V76.7625C172.633 79.7265 175.036 82.1292 178 82.1292H178.383C181.347 82.1292 183.749 79.7265 183.749 76.7625V57.1914C183.749 54.2275 181.347 51.8247 178.383 51.8247Z" fill="white"/>
<path d="M183.402 60.5201C181.632 60.7519 179.846 60.8293 178.062 60.7515C176.279 60.83 174.492 60.7526 172.722 60.5201C174.492 60.2928 176.279 60.2154 178.062 60.2887C179.846 60.2162 181.632 60.2936 183.402 60.5201Z" fill="#545C61"/>
<path d="M180.296 66.9815C180.296 67.4008 180.172 67.8107 179.938 68.1592C179.705 68.5078 179.374 68.7792 178.986 68.9393C178.599 69.0994 178.172 69.1408 177.761 69.0583C177.35 68.9759 176.973 68.7732 176.677 68.4761C176.381 68.179 176.18 67.8007 176.099 67.3893C176.018 66.9778 176.062 66.5516 176.223 66.1647C176.385 65.7778 176.658 65.4476 177.007 65.2159C177.357 64.9843 177.767 64.8615 178.187 64.8633C178.747 64.8657 179.283 65.0899 179.679 65.4868C180.074 65.8838 180.296 66.4213 180.296 66.9815Z" fill="#545C61"/>
<path d="M180.296 74.493C180.296 74.9123 180.172 75.3222 179.938 75.6707C179.705 76.0192 179.374 76.2907 178.986 76.4508C178.599 76.6108 178.172 76.6523 177.761 76.5698C177.35 76.4873 176.973 76.2847 176.677 75.9876C176.381 75.6905 176.18 75.3122 176.099 74.9007C176.018 74.4893 176.062 74.0631 176.223 73.6762C176.385 73.2893 176.658 72.9591 177.007 72.7274C177.357 72.4957 177.767 72.373 178.187 72.3748C178.464 72.3748 178.739 72.4296 178.996 72.5362C179.252 72.6427 179.485 72.7989 179.681 72.9957C179.877 73.1925 180.032 73.4261 180.138 73.683C180.243 73.94 180.297 74.2152 180.296 74.493Z" fill="#545C61"/>
<path d="M244.349 97.5974C244.208 97.7247 244.053 97.8352 243.887 97.9267C243.566 98.1314 243.103 98.434 242.489 98.8167C241.27 99.5465 239.472 100.543 237.149 101.629C234.451 102.906 231.646 103.942 228.766 104.726C225.23 105.689 221.58 106.165 217.916 106.141C211.257 106.034 204.686 104.603 198.586 101.932C196.747 101.127 194.963 100.203 193.246 99.1638C192.623 98.8078 192.178 98.4874 191.866 98.2738C191.698 98.1816 191.542 98.0679 191.403 97.9356C191.58 98.0069 191.749 98.0932 191.911 98.1937C192.24 98.3717 192.703 98.6654 193.335 99.0036C195.081 99.9716 196.879 100.845 198.719 101.62C204.804 104.183 211.324 105.555 217.925 105.661C221.573 105.691 225.207 105.227 228.73 104.281C231.591 103.524 234.384 102.526 237.078 101.3C239.392 100.267 241.208 99.3151 242.418 98.6298L243.851 97.8466C244.009 97.7477 244.176 97.6643 244.349 97.5974Z" fill="#545C61"/>
<path d="M249.048 105.367C248.9 105.536 248.736 105.691 248.559 105.83C248.23 106.115 247.74 106.533 247.09 107.058C245.272 108.554 243.36 109.933 241.368 111.188C238.384 113.039 235.12 114.394 231.702 115.202C227.521 116.182 223.235 116.649 218.94 116.59C216.72 116.588 214.503 116.449 212.3 116.172C210.248 115.902 208.22 115.48 206.231 114.908C202.865 113.952 199.605 112.655 196.503 111.036C194.415 109.955 192.394 108.748 190.451 107.423C189.748 106.96 189.24 106.533 188.884 106.311C188.694 106.192 188.518 106.051 188.359 105.892C188.561 105.993 188.754 106.109 188.938 106.239C189.303 106.471 189.828 106.836 190.549 107.272C192.523 108.535 194.561 109.697 196.654 110.752C199.756 112.312 203.002 113.566 206.346 114.499C208.321 115.046 210.331 115.456 212.363 115.727C214.545 115.993 216.741 116.127 218.94 116.127C223.194 116.188 227.439 115.74 231.587 114.792C234.975 114.016 238.216 112.703 241.19 110.903C243.193 109.681 245.127 108.35 246.984 106.916L248.506 105.759C248.676 105.615 248.858 105.484 249.048 105.367Z" fill="#545C61"/>
<g opacity="0.3">
<path d="M192.24 98.8434C195.308 102.591 199.176 105.605 203.559 107.665C207.943 109.725 212.731 110.779 217.575 110.75C222.418 110.721 227.194 109.609 231.552 107.497C235.91 105.385 239.742 102.325 242.765 98.5408C235.297 103.162 226.71 105.659 217.928 105.765C209.146 105.87 200.502 103.578 192.925 99.1371" fill="#010101"/>
</g>
<path d="M323.177 231.24C321.426 230.73 319.718 230.084 318.068 229.308C316.858 228.801 315.647 228.321 314.419 227.867C313.529 230.172 312.425 232.993 314.713 234.177C317.819 235.788 319.848 236.429 324.174 233.999C325.469 233.265 326.666 232.367 327.734 231.329C326.229 231.658 324.667 231.628 323.177 231.24Z" fill="#C0D2DA"/>
<path d="M310.939 226.674C308.518 225.909 306.071 225.259 303.597 224.725C303.73 226.016 303.828 226.959 303.881 227.306C304.175 229.211 305.172 232.068 307.655 232.183C310.138 232.299 311.09 230.323 310.939 226.674Z" fill="#C0D2DA"/>
<path d="M179.264 209.604L171.592 156.676L180.821 111.232H187.3L247.251 105.785L266.653 113.448L265.611 159.986L266.573 200.588L223.844 215.95L179.264 209.604Z" fill="white"/>
<path d="M177.501 197.473C177.501 197.473 177.501 197.411 177.448 197.269C177.395 197.126 177.377 196.904 177.332 196.663C177.234 196.085 177.101 195.302 176.941 194.314C176.602 192.231 176.14 189.294 175.561 185.672C174.44 178.338 172.891 168.263 171.191 157.138C170.301 151.576 169.411 146.272 168.851 141.403C168.342 137.097 168.128 132.762 168.21 128.427C168.251 125.505 168.507 122.59 168.975 119.705C169.118 118.682 169.322 117.925 169.429 117.364L169.563 116.759C169.575 116.689 169.596 116.62 169.625 116.554C169.635 116.625 169.635 116.697 169.625 116.768C169.625 116.937 169.571 117.133 169.536 117.382C169.465 117.916 169.287 118.699 169.171 119.732C168.772 122.616 168.567 125.524 168.557 128.436C168.541 132.756 168.803 137.072 169.34 141.359C169.892 146.209 170.782 151.496 171.707 157.067C173.416 168.21 174.885 178.312 175.953 185.627C176.46 189.25 176.843 192.204 177.181 194.287C177.306 195.284 177.412 196.067 177.492 196.646C177.492 196.895 177.492 197.099 177.555 197.269C177.551 197.34 177.533 197.409 177.501 197.473Z" fill="#545C61"/>
<g opacity="0.3">
<path d="M254.709 194.287C253.378 197.159 251.108 199.492 248.273 200.899C245.439 202.307 242.208 202.706 239.116 202.03C235.093 201.14 231.693 198.532 228.436 195.996L231.658 192.756L244.518 194.83L251.834 191.555L254.709 194.287Z" fill="#010101"/>
</g>
<path d="M267 204.985C266.932 205.013 266.86 205.032 266.786 205.038L266.146 205.154L263.689 205.563C261.562 205.91 258.465 206.373 254.638 206.889C246.975 207.931 236.366 209.132 224.6 209.996C212.835 210.859 202.163 211.188 194.429 211.268C190.567 211.313 187.443 211.268 185.28 211.268H182.797H182.147C182.074 211.28 181.999 211.28 181.925 211.268C181.998 211.255 182.074 211.255 182.147 211.268H182.797H185.28C187.443 211.268 190.567 211.206 194.429 211.117C202.146 210.957 212.817 210.565 224.565 209.711C236.313 208.856 246.93 207.699 254.593 206.738C258.429 206.266 261.526 205.848 263.662 205.563L266.128 205.243L266.777 205.172C266.836 205.093 266.912 205.029 267 204.985Z" fill="#545C61"/>
<path d="M265.825 168.272C236.304 167.525 200.766 168.379 173.879 169.403L175.098 176.709L265.941 174.271L265.825 168.272Z" fill="#FF5E5E"/>
<path d="M244.563 165.006C245.16 164.964 245.744 164.807 246.281 164.543C246.802 164.266 247.252 163.87 247.593 163.388C247.935 162.906 248.159 162.351 248.248 161.766C248.28 161.242 248.28 160.716 248.248 160.191C248.248 155.679 248.203 149.173 248.176 141.145C248.176 139.134 248.176 137.024 248.176 134.835C248.166 134.02 247.881 133.232 247.368 132.599C246.854 131.966 246.142 131.524 245.346 131.346C244.782 131.253 244.209 131.223 243.637 131.257H228.507H193.904C193.182 131.255 192.475 131.472 191.879 131.881C191.283 132.289 190.825 132.87 190.567 133.545C190.339 134.235 190.254 134.965 190.318 135.689V146.85C190.318 149.743 190.318 152.582 190.318 155.367V159.497C190.318 160.173 190.318 160.876 190.318 161.517C190.39 162.464 190.834 163.344 191.553 163.966C192.271 164.588 193.206 164.901 194.153 164.837H205.314H218.468L237.523 164.908H242.703L237.523 164.953L218.468 165.024H205.314H194.207C193.515 165.062 192.824 164.922 192.201 164.619C191.578 164.315 191.043 163.857 190.647 163.288C190.244 162.703 190.005 162.021 189.953 161.313C189.953 160.609 189.953 159.96 189.953 159.266V155.136C189.953 152.347 189.953 149.508 189.953 146.619C189.953 143.729 189.953 140.786 189.953 137.79V135.725C189.89 134.942 189.987 134.155 190.237 133.411C190.533 132.652 191.05 132 191.722 131.54C192.393 131.079 193.188 130.832 194.002 130.83H228.605H243.735C244.331 130.797 244.928 130.833 245.515 130.937C246.388 131.138 247.167 131.627 247.729 132.324C248.29 133.021 248.602 133.886 248.613 134.782C248.613 136.98 248.613 139.089 248.613 141.101C248.613 149.111 248.559 155.634 248.541 160.147C248.557 160.681 248.536 161.217 248.479 161.749C248.403 162.22 248.24 162.672 247.998 163.084C247.626 163.728 247.072 164.248 246.405 164.579C245.999 164.783 245.559 164.91 245.106 164.953C244.927 164.99 244.745 165.008 244.563 165.006Z" fill="#545C61"/>
<path d="M190.842 131.026C191.243 124.796 184.221 120.907 180.082 117.614C177.679 115.7 175.632 113.867 174.466 111.099C173.719 109.319 173.042 107.005 173.843 105.091C174.182 104.366 174.676 103.724 175.292 103.211C175.907 102.699 176.628 102.329 177.403 102.128C179.089 101.706 180.856 101.73 182.53 102.199C184.455 102.557 186.311 103.218 188.03 104.157C190.513 105.599 192.756 101.754 190.282 100.312C188.523 99.3354 186.639 98.6018 184.683 98.1314C182.748 97.5669 180.735 97.3175 178.72 97.3927C173.897 97.7665 169.678 101.068 169.144 106.035C168.699 110.218 170.782 114.721 173.594 117.729C175.917 120.212 178.863 122.179 181.462 124.217C182.873 125.256 184.162 126.45 185.306 127.777C185.066 127.475 185.502 128.053 185.493 128.044L185.849 128.596C185.938 128.756 186.294 129.531 186.161 129.192C186.284 129.506 186.376 129.831 186.437 130.163C186.348 129.718 186.437 130.163 186.437 130.269C186.45 130.509 186.45 130.75 186.437 130.99C186.259 133.847 190.709 133.838 190.887 130.99L190.842 131.026Z" fill="#545C61"/>
<path d="M183.073 128.4H194.171L194.055 138.537H183.571L183.073 128.4Z" fill="#C0D2DA"/>
<path d="M209.469 195.585C212.85 194.192 214.462 190.322 213.069 186.941C211.676 183.559 207.805 181.947 204.424 183.34C201.043 184.733 199.431 188.604 200.824 191.985C202.217 195.366 206.087 196.978 209.469 195.585Z" fill="#545C61"/>
<path d="M231.557 195.591C234.939 194.198 236.551 190.327 235.158 186.946C233.765 183.565 229.894 181.953 226.513 183.346C223.132 184.739 221.52 188.609 222.913 191.99C224.306 195.372 228.176 196.984 231.557 195.591Z" fill="#545C61"/>
<path d="M255.27 195.473C258.585 193.929 260.02 189.989 258.476 186.674C256.932 183.36 252.992 181.924 249.677 183.469C246.363 185.013 244.927 188.952 246.472 192.267C248.016 195.582 251.955 197.017 255.27 195.473Z" fill="#545C61"/>
<path d="M225.579 191.857C232.877 201.843 247.535 203.338 255.536 193.148C259.007 188.698 252.795 182.468 249.306 186.918C245.195 192.16 237.487 193.246 233.224 187.416C229.904 182.868 222.241 187.274 225.597 191.866L225.579 191.857Z" fill="white"/>
<path d="M225.579 191.857C225.529 191.808 225.486 191.751 225.455 191.688L225.116 191.163C224.965 190.861 224.843 190.545 224.752 190.22C224.662 189.764 224.662 189.296 224.752 188.84C224.895 188.216 225.178 187.633 225.581 187.134C225.983 186.636 226.494 186.237 227.074 185.966C227.78 185.588 228.562 185.378 229.362 185.352C230.267 185.325 231.161 185.554 231.943 186.01C232.732 186.583 233.424 187.28 233.99 188.075C234.329 188.442 234.688 188.79 235.067 189.116C235.473 189.446 235.904 189.744 236.357 190.006C238.339 191.106 240.666 191.409 242.863 190.852C245.295 190.25 247.459 188.857 249.013 186.891C249.227 186.651 249.485 186.393 249.716 186.144C249.998 185.921 250.295 185.719 250.606 185.538C251.261 185.222 251.997 185.113 252.715 185.227C253.421 185.382 254.087 185.684 254.669 186.113C255.251 186.542 255.737 187.088 256.094 187.717C256.451 188.345 256.673 189.041 256.744 189.761C256.815 190.48 256.734 191.207 256.507 191.893C255.902 193.125 255.075 194.236 254.068 195.168C252.226 196.97 250.02 198.357 247.598 199.236C245.405 200.029 243.074 200.374 240.745 200.25C238.726 200.17 236.734 199.764 234.844 199.049C232.1 198.04 229.622 196.417 227.6 194.305C227.039 193.754 226.524 193.159 226.06 192.525L225.695 192.035C225.649 191.984 225.61 191.927 225.579 191.866C225.579 191.866 225.633 191.911 225.731 192.009L226.14 192.472C226.63 193.084 227.162 193.661 227.733 194.198C229.775 196.234 232.243 197.79 234.96 198.755C236.821 199.441 238.78 199.823 240.763 199.885C243.033 199.978 245.299 199.618 247.429 198.826C249.785 197.958 251.93 196.599 253.721 194.839C254.558 193.86 255.617 192.943 256.044 191.724C256.246 191.102 256.316 190.445 256.25 189.794C256.185 189.143 255.984 188.513 255.662 187.944C255.34 187.375 254.903 186.879 254.379 186.488C253.854 186.097 253.255 185.819 252.617 185.672C252.012 185.582 251.393 185.671 250.837 185.93C250.568 186.09 250.312 186.272 250.072 186.473C249.85 186.713 249.627 186.918 249.413 187.167C247.793 189.208 245.538 190.648 243.005 191.261C240.708 191.844 238.275 191.526 236.206 190.371C235.741 190.105 235.295 189.808 234.871 189.481C234.497 189.098 234.088 188.778 233.767 188.378C233.225 187.608 232.567 186.927 231.818 186.357C231.091 185.927 230.26 185.705 229.415 185.716C228.656 185.735 227.911 185.924 227.235 186.268C226.681 186.516 226.19 186.884 225.798 187.346C225.405 187.808 225.121 188.352 224.965 188.938C224.882 189.373 224.882 189.82 224.965 190.255C225.04 190.576 225.145 190.889 225.277 191.19L225.561 191.724C225.553 191.786 225.588 191.849 225.579 191.857Z" fill="#545C61"/>
<path d="M200.819 155.038C200.819 155.362 200.723 155.679 200.543 155.949C200.362 156.218 200.106 156.428 199.806 156.552C199.506 156.675 199.177 156.707 198.859 156.643C198.541 156.58 198.249 156.423 198.02 156.193C197.792 155.963 197.637 155.67 197.574 155.352C197.512 155.034 197.546 154.704 197.671 154.405C197.796 154.106 198.008 153.851 198.278 153.672C198.549 153.493 198.866 153.399 199.19 153.4C199.623 153.403 200.037 153.576 200.343 153.883C200.648 154.19 200.819 154.605 200.819 155.038Z" fill="#545C61"/>
<path d="M206.427 155.038C206.427 155.362 206.331 155.678 206.151 155.948C205.971 156.217 205.715 156.427 205.416 156.551C205.116 156.675 204.787 156.707 204.469 156.644C204.152 156.581 203.86 156.425 203.631 156.196C203.402 155.967 203.246 155.675 203.183 155.357C203.12 155.04 203.152 154.711 203.276 154.411C203.4 154.112 203.61 153.856 203.879 153.676C204.148 153.496 204.465 153.4 204.789 153.4C205.223 153.403 205.638 153.576 205.944 153.883C206.251 154.189 206.424 154.604 206.427 155.038Z" fill="#545C61"/>
<path d="M211.82 155.038C211.82 155.362 211.724 155.678 211.544 155.948C211.364 156.217 211.108 156.427 210.809 156.551C210.509 156.675 210.18 156.707 209.863 156.644C209.545 156.581 209.253 156.425 209.024 156.196C208.795 155.967 208.639 155.675 208.576 155.357C208.513 155.04 208.545 154.711 208.669 154.411C208.793 154.112 209.003 153.856 209.272 153.676C209.542 153.496 209.858 153.4 210.182 153.4C210.616 153.403 211.031 153.576 211.337 153.883C211.644 154.189 211.817 154.604 211.82 155.038Z" fill="#545C61"/>
<path d="M217.249 155.038C217.249 155.362 217.153 155.678 216.973 155.948C216.793 156.217 216.537 156.427 216.238 156.551C215.939 156.675 215.609 156.707 215.292 156.644C214.974 156.581 214.682 156.425 214.453 156.196C214.224 155.967 214.068 155.675 214.005 155.357C213.942 155.04 213.974 154.711 214.098 154.411C214.222 154.112 214.432 153.856 214.701 153.676C214.971 153.496 215.287 153.4 215.611 153.4C216.045 153.403 216.46 153.576 216.767 153.883C217.073 154.189 217.247 154.604 217.249 155.038Z" fill="#545C61"/>
<path d="M214.837 144.643H199.956C199.698 144.643 199.442 144.592 199.203 144.493C198.965 144.394 198.748 144.249 198.565 144.067C198.383 143.884 198.238 143.667 198.139 143.429C198.04 143.19 197.989 142.934 197.989 142.676C197.989 142.154 198.196 141.654 198.565 141.285C198.934 140.916 199.434 140.709 199.956 140.709H214.837C215.359 140.709 215.859 140.916 216.228 141.285C216.597 141.654 216.804 142.154 216.804 142.676C216.804 142.934 216.753 143.19 216.654 143.429C216.555 143.667 216.41 143.884 216.228 144.067C216.045 144.249 215.828 144.394 215.59 144.493C215.351 144.592 215.095 144.643 214.837 144.643Z" fill="white"/>
<path d="M201.14 148.79C201.14 149.114 201.044 149.431 200.864 149.7C200.684 149.969 200.428 150.179 200.129 150.303C199.83 150.427 199.501 150.46 199.183 150.396C198.865 150.333 198.573 150.177 198.344 149.948C198.115 149.719 197.959 149.427 197.896 149.11C197.833 148.792 197.865 148.463 197.989 148.164C198.113 147.864 198.323 147.609 198.593 147.429C198.862 147.249 199.178 147.153 199.502 147.153C199.937 147.153 200.353 147.325 200.66 147.632C200.967 147.939 201.14 148.356 201.14 148.79Z" fill="#FF5E5E"/>
<path d="M206.711 148.79C206.711 149.114 206.615 149.431 206.435 149.7C206.255 149.969 206 150.179 205.7 150.303C205.401 150.427 205.072 150.46 204.754 150.396C204.436 150.333 204.145 150.177 203.916 149.948C203.687 149.719 203.531 149.427 203.468 149.11C203.404 148.792 203.437 148.463 203.561 148.164C203.685 147.864 203.895 147.609 204.164 147.429C204.433 147.249 204.75 147.153 205.074 147.153C205.508 147.153 205.924 147.325 206.232 147.632C206.539 147.939 206.711 148.356 206.711 148.79Z" fill="white"/>
<path d="M212.122 148.79C212.122 149.114 212.026 149.431 211.846 149.7C211.666 149.969 211.411 150.179 211.111 150.303C210.812 150.427 210.483 150.46 210.165 150.396C209.848 150.333 209.556 150.177 209.327 149.948C209.098 149.719 208.942 149.427 208.879 149.11C208.815 148.792 208.848 148.463 208.972 148.164C209.096 147.864 209.306 147.609 209.575 147.429C209.844 147.249 210.161 147.153 210.485 147.153C210.919 147.153 211.336 147.325 211.643 147.632C211.95 147.939 212.122 148.356 212.122 148.79Z" fill="#FF5E5E"/>
<path d="M217.533 148.79C217.533 149.114 217.437 149.431 217.258 149.7C217.078 149.969 216.822 150.179 216.523 150.303C216.223 150.427 215.894 150.46 215.576 150.396C215.259 150.333 214.967 150.177 214.738 149.948C214.509 149.719 214.353 149.427 214.29 149.11C214.227 148.792 214.259 148.463 214.383 148.164C214.507 147.864 214.717 147.609 214.986 147.429C215.255 147.249 215.572 147.153 215.896 147.153C216.33 147.153 216.747 147.325 217.054 147.632C217.361 147.939 217.533 148.356 217.533 148.79Z" fill="white"/>
<path d="M238.662 139.436H229.602C228.786 139.436 228.125 140.098 228.125 140.914V149.974C228.125 150.79 228.786 151.451 229.602 151.451H238.662C239.478 151.451 240.14 150.79 240.14 149.974V140.914C240.14 140.098 239.478 139.436 238.662 139.436Z" fill="#C0D2DA"/>
<path d="M239.454 157.138H228.774C228.331 157.138 227.905 156.962 227.591 156.648C227.277 156.335 227.101 155.909 227.101 155.465C227.101 155.021 227.277 154.596 227.591 154.282C227.905 153.968 228.331 153.792 228.774 153.792H239.454C239.899 153.792 240.325 153.968 240.641 154.282C240.956 154.595 241.134 155.021 241.136 155.465C241.134 155.91 240.956 156.335 240.641 156.649C240.325 156.962 239.899 157.138 239.454 157.138Z" fill="#545C61"/>
<path opacity="0.3" d="M193.13 164.979C193.13 164.979 193.415 166.012 196.69 166.546C199.965 167.08 240.433 166.991 242.827 166.546C244.216 166.312 245.5 165.656 246.503 164.668L193.13 164.979Z" fill="#010101"/>
<path d="M319.795 186.437C317.659 181.418 304.967 160.218 301.105 154.006C297.242 147.794 285.975 135.796 285.975 135.796L275.206 121.556C272.821 118.407 269.948 115.658 266.697 113.413L259.141 138.155L261.909 159.168L274.947 166.145L282.957 178.846L298.791 203.445C299.727 204.08 300.73 204.612 301.781 205.029L321.041 193.13C321.041 193.13 321.842 191.234 319.795 186.437Z" fill="white"/>
<path d="M290.184 148.63C290.15 148.934 290.078 149.233 289.971 149.52C289.876 149.875 289.757 150.223 289.615 150.561C289.445 151.016 289.252 151.462 289.036 151.896C288.486 153.037 287.846 154.133 287.123 155.172C286.231 156.44 285.256 157.647 284.203 158.785C282.279 160.83 280.157 162.679 277.867 164.303C276.977 164.935 276.256 165.398 275.731 165.709C275.475 165.888 275.197 166.031 274.903 166.136C274.903 166.074 275.971 165.344 277.671 164.045C279.898 162.36 281.982 160.494 283.901 158.465C284.94 157.336 285.912 156.148 286.811 154.905C287.536 153.89 288.193 152.829 288.778 151.727C289.73 149.912 290.14 148.63 290.184 148.63Z" fill="#545C61"/>
<path d="M272.002 143.29C272.073 143.29 271.646 144.278 271.112 145.88C270.578 147.482 269.946 149.707 269.269 152.199C268.724 154.332 268.067 156.435 267.302 158.5C266.991 159.292 266.706 159.924 266.492 160.342C266.279 160.761 266.136 160.992 266.11 160.974C266.083 160.957 266.457 159.986 267 158.393C267.543 156.8 268.166 154.557 268.833 152.074C269.384 149.939 270.043 147.833 270.809 145.764C271.044 145.136 271.315 144.52 271.619 143.922C271.717 143.695 271.845 143.482 272.002 143.29Z" fill="#545C61"/>
<path d="M267.543 117.854C267.554 117.924 267.554 117.997 267.543 118.067C267.543 118.236 267.543 118.441 267.489 118.69C267.436 119.278 267.365 120.079 267.267 121.093C267.169 122.108 267.115 123.425 267.017 124.903C266.92 126.38 266.875 128.08 266.795 129.949C266.519 137.425 266.368 147.749 266.35 159.194C266.332 170.64 266.421 180.973 266.501 188.466C266.501 192.178 266.572 195.195 266.59 197.366C266.59 198.381 266.59 199.191 266.59 199.778C266.59 200.027 266.59 200.241 266.59 200.41C266.603 200.481 266.603 200.553 266.59 200.624C266.579 200.553 266.579 200.481 266.59 200.41C266.59 200.241 266.59 200.036 266.59 199.778C266.59 199.191 266.528 198.39 266.492 197.375C266.43 195.239 266.35 192.213 266.252 188.475C266.092 180.99 265.958 170.675 265.967 159.203C265.976 147.731 266.19 137.425 266.546 129.94C266.653 128.071 266.75 126.38 266.839 124.894C266.928 123.407 267.08 122.144 267.169 121.084C267.258 120.025 267.409 119.304 267.48 118.69C267.48 118.441 267.551 118.236 267.578 118.067C267.553 117.999 267.541 117.927 267.543 117.854Z" fill="#545C61"/>
<path d="M310.129 190.282C309.569 190.469 300.152 194.385 298.773 203.481C299.837 204.209 300.984 204.806 302.191 205.261L321.041 193.13C321.266 192.064 321.236 190.96 320.952 189.908C320.952 189.908 319.679 187.22 310.129 190.282Z" fill="#FF5E5E"/>
<path d="M301.861 206.222C301.861 206.222 303.588 225.402 303.881 227.306C304.175 229.211 305.172 232.068 307.655 232.183C310.458 232.317 311.268 229.878 310.85 225.455C310.432 221.032 310.405 218.219 311.241 218.78C312.078 219.341 315.398 223.426 315.095 225.66C314.793 227.894 311.597 232.566 314.712 234.177C317.827 235.788 319.848 236.429 324.173 233.999C326.668 232.651 328.764 230.672 330.252 228.258C330.252 228.258 333.812 220.827 333.189 217.854C332.949 216.733 325.757 202.333 325.757 202.333L320.738 193.824C320.738 193.824 318.522 189.49 309.88 194.154C300.748 199.075 301.638 203.908 301.861 206.222Z" fill="#545C61"/>
<path d="M269.883 163.493C276.229 155.066 281.927 146.171 286.927 136.882L289.739 139.961C285.186 149.022 279.458 157.442 272.705 165.006L269.883 163.493Z" fill="#FF5E5E"/>
<path d="M316.59 180.261C316.59 180.261 316.261 180.261 315.7 180.323C314.865 180.405 314.037 180.557 313.226 180.777C310.499 181.557 307.838 182.554 305.27 183.758L305.092 183.839L304.985 183.687L303.935 182.245L303.107 181.106L302.991 180.946L303.134 180.804C304.347 179.666 305.788 178.798 307.361 178.258C308.604 177.812 309.885 177.482 311.188 177.27C312.057 177.122 312.934 177.021 313.814 176.968C314.133 176.926 314.456 176.926 314.775 176.968C314.465 177.046 314.15 177.096 313.831 177.119C313.217 177.208 312.336 177.333 311.25 177.555C309.973 177.807 308.72 178.167 307.504 178.632C306 179.172 304.624 180.017 303.463 181.115V180.813L304.291 181.952C304.647 182.45 305.003 182.931 305.341 183.394L305.056 183.322C307.65 182.109 310.357 181.152 313.137 180.465C313.968 180.261 314.819 180.15 315.674 180.136C315.906 180.13 316.139 180.148 316.368 180.19C316.51 180.225 316.59 180.243 316.59 180.261Z" fill="#545C61"/>
<path d="M320.338 187.79C318.885 187.598 317.423 187.488 315.959 187.461C314.381 187.487 312.814 187.717 311.295 188.146C309.439 188.691 307.668 189.494 306.035 190.531C303.064 192.43 300.616 195.043 298.915 198.132C298.245 199.431 297.651 200.769 297.135 202.137C297.178 201.742 297.268 201.354 297.402 200.98C297.723 199.943 298.134 198.937 298.63 197.972C299.911 195.495 301.688 193.308 303.85 191.548C306.012 189.787 308.513 188.49 311.197 187.737C313.811 187.027 316.554 186.938 319.207 187.479C319.595 187.536 319.975 187.641 320.338 187.79Z" fill="#545C61"/>
<path d="M321.334 216.777C321.519 216.976 321.672 217.201 321.788 217.445C322.148 218.079 322.461 218.74 322.723 219.421C323.121 220.434 323.393 221.492 323.533 222.571C323.703 223.911 323.594 225.272 323.212 226.567C322.789 227.84 322.173 229.04 321.388 230.127C320.764 231.008 320.089 231.852 319.367 232.655C318.884 233.2 318.373 233.719 317.837 234.212C317.463 234.56 317.231 234.738 317.214 234.711C317.196 234.684 317.961 233.821 319.118 232.441C319.697 231.738 320.364 230.875 321.032 229.887C321.792 228.83 322.392 227.666 322.812 226.434C323.408 224.154 323.287 221.745 322.465 219.536C321.833 217.81 321.29 216.822 321.334 216.777Z" fill="#C0D2DA"/>
<path d="M329.193 217.703C329.325 217.889 329.424 218.097 329.487 218.317C329.713 218.893 329.883 219.489 329.994 220.097C330.18 220.996 330.27 221.912 330.261 222.829C330.251 223.956 330.117 225.078 329.86 226.176C329.587 227.267 329.199 228.326 328.703 229.335C328.288 230.153 327.793 230.928 327.226 231.649C326.851 232.141 326.427 232.594 325.962 233.002C325.633 233.287 325.446 233.438 325.419 233.411C325.393 233.385 326.069 232.699 326.959 231.453C327.48 230.727 327.936 229.955 328.321 229.148C328.779 228.155 329.142 227.121 329.406 226.06C329.654 224.997 329.797 223.912 329.834 222.82C329.859 221.927 329.806 221.034 329.673 220.15C329.442 218.637 329.113 217.738 329.193 217.703Z" fill="#C0D2DA"/>
<path d="M321.85 213.102C321.957 213.039 322.304 213.582 322.198 214.33C322.091 215.077 321.592 215.487 321.512 215.398C321.432 215.309 321.655 214.864 321.735 214.259C321.815 213.653 321.726 213.155 321.85 213.102Z" fill="#C0D2DA"/>
<path d="M329.104 214.134C329.202 214.054 329.576 214.392 329.683 215.024C329.789 215.656 329.558 216.057 329.442 216.021C329.327 215.985 329.318 215.576 329.229 215.131C329.14 214.686 328.997 214.205 329.104 214.134Z" fill="#C0D2DA"/>
<path d="M190.504 363.841L204.638 397.056L197.998 422.35C197.635 424.96 198.299 427.609 199.849 429.74C201.399 431.871 203.716 433.318 206.311 433.777C206.748 433.876 207.197 433.918 207.646 433.902C208.972 433.786 212.47 431.481 213.182 430.431C221.192 418.701 232.352 403.401 230.732 398.053C229.842 395 222.607 358.643 222.607 358.643L190.504 363.841Z" fill="white"/>
<path d="M214.926 381.668C215.039 381.816 215.135 381.978 215.211 382.148C215.38 382.478 215.611 382.958 215.905 383.581C216.742 385.322 217.49 387.105 218.148 388.921C219.152 391.627 219.697 394.482 219.759 397.367C219.764 399.081 219.509 400.786 219.002 402.423C218.433 404.168 217.743 405.872 216.937 407.522C215.264 410.878 214.321 414.304 212.843 417.259C211.614 420.022 209.475 422.281 206.783 423.658C204.853 424.546 202.66 424.673 200.642 424.014C200.111 423.831 199.61 423.57 199.155 423.24C198.995 423.134 198.851 423.005 198.728 422.857C199.356 423.244 200.025 423.56 200.722 423.8C202.673 424.351 204.759 424.17 206.587 423.293C209.143 421.917 211.165 419.723 212.327 417.063C213.733 414.179 214.686 410.7 216.368 407.318C217.164 405.689 217.851 404.009 218.424 402.289C218.92 400.704 219.178 399.055 219.189 397.394C219.147 394.56 218.655 391.751 217.73 389.073C216.973 386.759 216.19 384.925 215.683 383.652C215.383 383.01 215.13 382.347 214.926 381.668Z" fill="#545C61"/>
<path d="M215.611 397.919C215.549 398.079 213.128 397.394 210.049 397.127C206.969 396.86 204.442 397.074 204.424 396.905C204.406 396.735 206.934 396.255 210.102 396.549C213.271 396.842 215.674 397.83 215.611 397.919Z" fill="#545C61"/>
<path d="M211.766 405.528C211.677 405.68 209.728 404.745 207.138 404.158C204.548 403.57 202.359 403.526 202.359 403.357C202.359 403.188 204.602 402.974 207.281 403.597C209.959 404.22 211.82 405.404 211.766 405.528Z" fill="#545C61"/>
<path d="M210.574 413.85C210.458 413.983 208.705 412.755 206.257 411.767C203.81 410.779 201.647 410.388 201.683 410.219C201.718 410.05 203.961 410.219 206.506 411.233C209.052 412.248 210.68 413.734 210.574 413.85Z" fill="#545C61"/>
<path d="M199.36 428.686C199.928 428.995 200.524 429.248 201.14 429.443C202.86 429.89 204.677 429.791 206.337 429.158C208.709 428.161 210.779 426.563 212.345 424.521C214.187 422.314 216.101 419.778 217.988 417.063C221.176 412.421 224 407.538 226.434 402.458C227.324 400.518 228.062 398.898 228.552 397.821C228.767 397.233 229.032 396.664 229.344 396.121C229.198 396.728 229.008 397.323 228.774 397.901C228.356 399.023 227.724 400.651 226.834 402.618C224.521 407.787 221.747 412.738 218.548 417.41C216.644 420.151 214.721 422.679 212.826 424.895C211.18 426.989 209.004 428.605 206.524 429.576C204.776 430.206 202.869 430.247 201.095 429.692C200.629 429.54 200.186 429.324 199.778 429.051C199.511 428.82 199.36 428.704 199.36 428.686Z" fill="#545C61"/>
<path d="M227.537 399.343C227.255 398.453 227.055 397.538 226.941 396.611C226.621 394.92 226.14 392.597 225.464 390.06C224.787 387.524 224.057 385.254 223.506 383.626C223.148 382.762 222.868 381.869 222.669 380.956C223.186 381.747 223.605 382.599 223.915 383.492C225.623 387.681 226.787 392.072 227.377 396.557C227.553 397.475 227.607 398.411 227.537 399.343Z" fill="#545C61"/>
<path d="M294.83 347.26L287.247 382.451L298.666 406.347C299.54 408.827 299.397 411.552 298.268 413.927C297.139 416.302 295.116 418.133 292.64 419.021C292.228 419.195 291.794 419.311 291.35 419.368C290.015 419.475 286.117 417.775 285.209 416.858C275.054 406.597 261.072 393.38 261.66 387.782C261.989 384.614 262.122 347.474 262.122 347.474L294.83 347.26Z" fill="white"/>
<path d="M274.12 368.958C274.12 368.958 274.12 369.145 274.058 369.501C273.995 369.857 273.871 370.436 273.755 371.05C273.497 372.394 273.079 374.334 272.776 376.746C272.368 379.56 272.419 382.421 272.927 385.219C273.261 386.863 273.834 388.449 274.627 389.927C275.524 391.532 276.522 393.078 277.618 394.555C279.932 397.617 281.543 400.892 283.492 403.517C285.148 405.967 287.566 407.803 290.371 408.742C292.328 409.305 294.424 409.134 296.263 408.261C296.909 407.918 297.507 407.494 298.043 406.997C298.043 406.997 297.954 407.166 297.705 407.451C297.313 407.848 296.867 408.187 296.379 408.457C294.495 409.452 292.303 409.693 290.247 409.133C287.309 408.21 284.765 406.33 283.02 403.793C280.991 401.123 279.398 397.892 277.101 394.849C275.994 393.353 274.986 391.786 274.084 390.158C273.273 388.63 272.694 386.989 272.367 385.29C271.88 382.436 271.88 379.52 272.367 376.666C272.66 374.751 273.052 372.853 273.541 370.979C273.719 370.311 273.853 369.795 273.96 369.448C273.992 369.279 274.046 369.114 274.12 368.958Z" fill="#545C61"/>
<path d="M276.567 385.121C276.478 385.005 278.667 383.661 281.747 382.86C284.826 382.059 287.434 382.113 287.425 382.255C287.416 382.397 284.897 382.62 281.916 383.412C278.934 384.204 276.656 385.281 276.567 385.121Z" fill="#545C61"/>
<path d="M281.827 392.009C281.711 391.903 283.349 390.416 285.885 389.339C288.422 388.263 290.7 388.129 290.709 388.28C290.718 388.432 288.582 388.841 286.144 389.865C283.705 390.888 281.943 392.143 281.827 392.009Z" fill="#545C61"/>
<path d="M284.604 400.02C284.47 399.939 285.805 398.24 288.164 396.753C290.522 395.267 292.703 394.804 292.738 394.973C292.774 395.142 290.736 395.863 288.511 397.261C286.286 398.658 284.737 400.135 284.604 400.02Z" fill="#545C61"/>
<path d="M298.506 412.844C298.506 412.844 298.408 412.987 298.185 413.227C297.833 413.576 297.435 413.876 297.002 414.117C295.355 414.953 293.48 415.231 291.662 414.909C289.02 414.36 286.566 413.134 284.542 411.349C282.061 409.323 279.684 407.172 277.422 404.906C273.351 400.841 269.649 396.425 266.359 391.707C265.095 389.927 264.161 388.414 263.529 387.373C263.186 386.844 262.888 386.287 262.639 385.708C263.048 386.195 263.42 386.713 263.751 387.257C264.445 388.263 265.433 389.722 266.733 391.484C270.112 396.106 273.84 400.462 277.884 404.514C280.27 406.89 282.646 409.071 284.889 410.949C286.828 412.697 289.18 413.922 291.724 414.509C293.472 414.856 295.286 414.651 296.913 413.921C297.472 413.606 298.005 413.246 298.506 412.844Z" fill="#545C61"/>
<path d="M265.051 388.521C264.803 387.613 264.677 386.676 264.677 385.735C264.392 381.221 264.691 376.689 265.567 372.251C265.698 371.316 265.946 370.401 266.306 369.528C266.29 370.464 266.185 371.397 265.994 372.314C265.763 374.023 265.469 376.381 265.291 379.007C265.113 381.632 265.086 383.999 265.095 385.726C265.166 386.657 265.151 387.592 265.051 388.521Z" fill="#545C61"/>
<path d="M277.128 228.143C277.128 228.143 283.928 227.511 286.393 230.448C288.858 233.385 298.354 248.203 296.966 249.592C295.578 250.98 292.845 254.3 292.845 254.3L277.128 228.143Z" fill="#C0D2DA"/>
<path d="M224.413 343.175C224.485 342.614 218.878 321.584 218.878 321.584L218.361 296.005L219.75 279.211C219.75 279.211 224.307 277.253 220.64 272.269L222.607 263.538L177.902 208.456C177.902 208.456 175.615 223.248 174.484 240.371C174.226 244.376 169.491 264.704 170.835 277.813C172.179 290.923 178.427 314.873 178.694 319.092C178.961 323.31 186.401 349.031 190.166 357.736C194.616 368.06 201.603 389.215 201.603 389.215L229.798 382.558C229.798 382.558 224.342 343.736 224.413 343.175Z" fill="white"/>
<path d="M278.57 229.46C279.727 229.976 301.71 264.677 304.202 273.915C306.694 283.154 303.828 306.258 303.054 310.548C302.279 314.838 291.012 368.789 290.594 370.267C290.175 371.744 273.034 378.179 261.135 370.73L259.622 350.26C259.622 350.26 257.592 328.054 258.002 321.78L258.42 315.55L258.616 293.86L253.632 281.044C252.146 279.603 251.54 278.081 251.852 276.47L248.683 268.344L237.665 260.414C237.665 260.414 236.134 250.33 245.462 236.927C254.789 223.524 272.438 218.237 272.438 218.237L278.57 229.46Z" fill="white"/>
<path d="M174.653 299.823C175.136 299.49 175.663 299.226 176.22 299.04C177.717 298.463 179.255 297.998 180.821 297.652C186.035 296.554 191.367 296.124 196.69 296.37C198.247 296.459 199.76 296.495 201.229 296.673C202.637 296.823 204.036 297.046 205.421 297.34C207.745 297.846 210.032 298.512 212.265 299.334C213.765 299.875 215.236 300.496 216.67 301.194C217.207 301.413 217.715 301.697 218.183 302.039C217.629 301.859 217.088 301.642 216.563 301.39C215.522 300.962 214.018 300.357 212.113 299.716C209.88 298.961 207.603 298.34 205.296 297.856C202.448 297.324 199.56 297.026 196.663 296.966C191.394 296.719 186.114 297.081 180.928 298.043C179.368 298.347 177.828 298.749 176.318 299.245C175.241 299.601 174.671 299.859 174.653 299.823Z" fill="#545C61"/>
<path d="M175.855 305.172C183.097 302.657 190.762 301.583 198.416 302.013C205.261 302.469 212.024 303.758 218.557 305.848L218.628 309.186C218.628 309.186 204.94 306.374 198.915 306.053C191.421 305.662 176.611 308.661 176.611 308.661L175.855 305.172Z" fill="#FF5E5E"/>
<path d="M251.621 276.487C251.907 275.917 252.24 275.373 252.617 274.859C253.019 274.239 253.459 273.644 253.935 273.079C254.529 272.277 255.164 271.508 255.839 270.774C256.643 269.859 257.493 268.986 258.385 268.157C259.319 267.222 260.423 266.377 261.571 265.389C264.142 263.395 266.889 261.638 269.777 260.138C272.726 258.669 275.8 257.463 278.961 256.534C280.439 256.151 281.836 255.75 283.18 255.528C284.524 255.305 285.77 255.083 286.918 254.941C288.066 254.798 289.116 254.754 290.024 254.691C290.809 254.627 291.596 254.609 292.383 254.638C293.052 254.617 293.721 254.65 294.385 254.736C293.724 254.823 293.058 254.865 292.392 254.86C291.742 254.86 290.959 254.905 290.051 255.012C289.143 255.118 288.102 255.145 286.98 255.35C285.859 255.555 284.604 255.688 283.287 256C281.97 256.311 280.617 256.649 279.131 257.041C276.018 257.987 272.99 259.193 270.079 260.645C267.221 262.126 264.497 263.85 261.936 265.798C260.797 266.733 259.684 267.578 258.75 268.468C257.815 269.358 256.97 270.204 256.177 271.014C255.385 271.824 254.78 272.58 254.211 273.239C253.641 273.897 253.178 274.503 252.813 275.019C252.456 275.54 252.057 276.031 251.621 276.487Z" fill="#545C61"/>
<path d="M253.979 281.285C254.265 280.715 254.598 280.17 254.976 279.656C255.378 279.036 255.818 278.442 256.293 277.876C256.89 277.075 257.529 276.305 258.207 275.571C259.008 274.654 259.858 273.781 260.752 272.954C261.642 272.064 262.781 271.174 263.929 270.186C266.5 268.188 269.25 266.43 272.144 264.935C275.09 263.465 278.161 262.258 281.32 261.331C282.797 260.939 284.194 260.548 285.538 260.325C286.882 260.103 288.128 259.871 289.276 259.738C290.425 259.604 291.475 259.542 292.391 259.48C293.173 259.423 293.958 259.408 294.741 259.435C295.413 259.415 296.086 259.448 296.752 259.533C296.088 259.62 295.419 259.661 294.75 259.658C294.109 259.658 293.317 259.702 292.409 259.809C291.501 259.916 290.469 259.942 289.339 260.147C288.208 260.352 286.962 260.485 285.645 260.797C284.328 261.108 282.975 261.438 281.489 261.838C278.378 262.77 275.35 263.961 272.438 265.398C269.592 266.883 266.879 268.61 264.33 270.56C263.191 271.495 262.078 272.34 261.144 273.23C260.209 274.12 259.364 275.01 258.571 275.776C257.779 276.541 257.174 277.342 256.605 278.001C256.112 278.57 255.648 279.164 255.216 279.781C254.844 280.314 254.431 280.817 253.979 281.285Z" fill="#545C61"/>
<path d="M268.691 206.836L234.541 202.546L177.928 208.456L178.56 230.742L177.288 231.97L222.945 264.659L227.662 260.726L237.692 260.405L273.123 219.892L268.691 206.836Z" fill="white"/>
<path d="M274.698 223.185C274.002 223.393 273.295 223.559 272.58 223.684C270.664 224.119 268.777 224.672 266.929 225.339C260.922 227.48 255.454 230.906 250.909 235.378C245.19 241.095 241.35 248.419 239.899 256.374C239.811 257.049 239.68 257.717 239.508 258.376C239.484 258.202 239.484 258.025 239.508 257.851C239.508 257.504 239.561 256.961 239.659 256.347C239.902 254.498 240.301 252.673 240.852 250.891C242.692 244.879 245.977 239.409 250.419 234.96C255.036 230.414 260.632 226.983 266.777 224.93C268.657 224.291 270.582 223.791 272.536 223.435C273.221 223.301 273.773 223.248 274.138 223.194C274.323 223.166 274.512 223.163 274.698 223.185Z" fill="#545C61"/>
<path d="M225.561 262.443C225.426 262.318 225.31 262.174 225.214 262.016L224.324 260.735C223.959 260.174 223.488 259.489 222.891 258.732C222.295 257.976 221.672 257.077 220.853 256.169C220.034 255.261 219.207 254.229 218.183 253.214C217.16 252.199 216.065 251.131 214.881 250.028C212.216 247.699 209.368 245.589 206.364 243.718C203.3 241.867 200.095 240.26 196.779 238.912C195.23 238.333 193.762 237.746 192.329 237.336C190.896 236.927 189.588 236.518 188.359 236.215C187.131 235.912 186.01 235.69 185.031 235.485C184.052 235.281 183.188 235.138 182.485 235.049L180.874 234.791C180.501 234.72 180.305 234.684 180.314 234.658C180.503 234.636 180.694 234.636 180.883 234.658L182.521 234.809C183.384 234.874 184.243 234.987 185.093 235.147C186.09 235.334 187.238 235.485 188.466 235.806C189.694 236.126 191.065 236.402 192.489 236.865C193.913 237.328 195.417 237.826 196.992 238.404C200.358 239.735 203.606 241.345 206.702 243.219C209.733 245.108 212.598 247.251 215.264 249.627C216.457 250.749 217.605 251.79 218.566 252.876C219.527 253.962 220.426 254.95 221.191 255.902C221.957 256.854 222.598 257.753 223.167 258.572C223.659 259.232 224.111 259.922 224.52 260.637C224.84 261.171 225.099 261.616 225.312 261.981C225.419 262.121 225.503 262.277 225.561 262.443Z" fill="#545C61"/>
<path d="M171.111 267.365C171.698 267.021 172.311 266.724 172.945 266.475C173.668 266.135 174.411 265.837 175.17 265.585C176.06 265.273 177.048 264.873 178.205 264.579L179.985 264.081C180.608 263.912 181.275 263.796 181.96 263.645C183.331 263.324 184.817 263.146 186.41 262.933C193.238 262.142 200.155 262.723 206.756 264.642C208.251 265.113 209.684 265.532 210.966 266.083C211.606 266.35 212.247 266.564 212.835 266.84L214.499 267.632C215.455 268.083 216.388 268.582 217.293 269.127C217.992 269.506 218.667 269.928 219.314 270.391C219.882 270.749 220.426 271.145 220.942 271.575C220.322 271.293 219.727 270.96 219.162 270.578C218.497 270.152 217.811 269.76 217.107 269.403C216.279 268.985 215.38 268.442 214.294 267.997L212.621 267.24C212.042 266.982 211.402 266.778 210.761 266.528C209.488 266.003 208.091 265.638 206.578 265.149C203.316 264.268 199.984 263.672 196.619 263.369C193.237 263.112 189.839 263.148 186.464 263.476C184.924 263.68 183.438 263.832 182.085 264.134C181.409 264.277 180.741 264.375 180.118 264.526L178.338 264.989C177.19 265.256 176.193 265.629 175.303 265.879C174.539 266.109 173.787 266.38 173.052 266.689C172.422 266.961 171.774 267.187 171.111 267.365Z" fill="#545C61"/>
<path d="M170.595 275.829C171.167 275.513 171.762 275.24 172.375 275.01L173.363 274.601L174.573 274.2C175.463 273.924 176.424 273.568 177.555 273.31L179.335 272.874C179.958 272.741 180.607 272.634 181.275 272.509C182.61 272.233 184.069 272.109 185.591 271.913C188.912 271.649 192.248 271.649 195.568 271.913C198.882 272.201 202.169 272.737 205.403 273.515C206.88 273.915 208.295 274.271 209.568 274.716C210.841 275.161 212.042 275.562 213.128 275.989C214.214 276.416 215.139 276.879 215.967 277.217C216.678 277.526 217.373 277.87 218.05 278.25C218.645 278.532 219.216 278.863 219.758 279.238C219.146 279.019 218.551 278.754 217.978 278.445C217.4 278.17 216.697 277.84 215.851 277.502C215.006 277.164 214.071 276.737 212.994 276.372C211.917 276.007 210.752 275.544 209.434 275.17C208.117 274.796 206.764 274.414 205.287 274.031C202.078 273.291 198.822 272.773 195.541 272.482C192.256 272.242 188.957 272.242 185.671 272.482C184.158 272.652 182.717 272.758 181.39 273.017C180.732 273.132 180.082 273.221 179.468 273.346L177.688 273.737C176.558 273.969 175.579 274.289 174.698 274.538L173.487 274.885L172.482 275.25C171.869 275.492 171.238 275.686 170.595 275.829Z" fill="#545C61"/>
<path d="M173.47 288.093C174.432 287.286 175.459 286.56 176.54 285.921C178.48 284.631 181.186 282.895 184.194 281L190.246 277.253L190.139 277.466C190.068 275.811 190.033 274.44 190.024 273.488C189.979 272.983 190 272.475 190.086 271.975C190.227 272.461 190.305 272.964 190.317 273.47C190.415 274.423 190.531 275.793 190.656 277.44V277.573L190.531 277.653L184.532 281.48C181.524 283.376 178.774 285.04 176.772 286.26C175.721 286.956 174.617 287.569 173.47 288.093Z" fill="#545C61"/>
<path d="M184.354 342.276C184.659 341.857 185.008 341.472 185.396 341.128C185.821 340.691 186.269 340.278 186.74 339.891C187.291 339.437 187.897 338.876 188.644 338.369C189.435 337.769 190.258 337.214 191.11 336.705C192 336.117 193.041 335.601 194.109 335.041C196.494 333.886 198.982 332.956 201.54 332.264C204.125 331.609 206.765 331.195 209.426 331.027C210.663 331.027 211.829 330.929 212.923 331.027C214.018 331.125 215.033 331.142 215.958 331.249C216.884 331.356 217.738 331.507 218.433 331.632C219.054 331.728 219.669 331.862 220.275 332.032C220.798 332.143 221.311 332.3 221.806 332.504C221.806 332.62 219.572 331.997 215.914 331.659C215.024 331.578 213.991 331.498 212.915 331.507C211.838 331.516 210.681 331.507 209.47 331.596C206.852 331.791 204.255 332.214 201.709 332.86C199.191 333.532 196.737 334.426 194.376 335.53C193.308 336.073 192.284 336.562 191.385 337.123C190.487 337.684 189.65 338.2 188.911 338.707C186.01 340.754 184.452 342.365 184.354 342.276Z" fill="#545C61"/>
<path d="M186.677 348.364C186.984 347.977 187.327 347.619 187.701 347.296C188.048 346.967 188.475 346.566 189.009 346.139C189.543 345.712 190.122 345.196 190.842 344.715C192.49 343.517 194.227 342.449 196.04 341.52C198.286 340.383 200.623 339.436 203.027 338.69C205.46 337.966 207.949 337.439 210.467 337.114C212.534 336.869 214.616 336.777 216.697 336.838C217.587 336.838 218.379 336.927 219.082 336.981C219.679 337.018 220.273 337.089 220.862 337.194C221.369 337.244 221.87 337.342 222.357 337.488C222.357 337.604 220.186 337.257 216.679 337.239C214.628 337.242 212.58 337.379 210.547 337.648C205.593 338.296 200.781 339.76 196.307 341.983C194.507 342.88 192.77 343.9 191.109 345.035C188.288 346.975 186.766 348.453 186.677 348.364Z" fill="#545C61"/>
<path d="M302.093 313.618C301.526 313.511 300.969 313.356 300.428 313.155C299.903 312.986 299.262 312.79 298.506 312.595C297.749 312.399 296.895 312.123 295.925 311.927C293.674 311.391 291.395 310.978 289.099 310.69C283.46 309.993 277.752 310.073 272.135 310.93C269.85 311.281 267.586 311.756 265.353 312.354C264.392 312.586 263.573 312.871 262.799 313.093C262.025 313.316 261.411 313.529 260.895 313.716C260.361 313.93 259.81 314.097 259.248 314.214C259.745 313.932 260.267 313.694 260.806 313.502C261.313 313.289 261.936 313.031 262.683 312.79C263.431 312.55 264.268 312.221 265.229 311.963C267.467 311.303 269.744 310.782 272.046 310.405C274.876 309.957 277.734 309.704 280.599 309.649C283.467 309.626 286.334 309.798 289.179 310.165C291.492 310.474 293.784 310.929 296.041 311.527C297.011 311.758 297.821 312.052 298.613 312.283C299.405 312.515 300.001 312.746 300.508 312.951C301.055 313.127 301.585 313.351 302.093 313.618Z" fill="#545C61"/>
<path d="M300.909 319.51C300.336 319.455 299.769 319.345 299.218 319.181C298.15 318.923 296.548 318.593 294.643 318.291C292.738 317.988 290.362 317.641 287.763 317.401C284.938 317.19 282.104 317.131 279.273 317.223C276.445 317.337 273.625 317.604 270.827 318.024C268.255 318.433 265.958 318.914 264.045 319.403C262.131 319.893 260.609 320.293 259.595 320.658C259.059 320.864 258.505 321.016 257.939 321.112C258.445 320.849 258.972 320.629 259.515 320.453C260.973 319.899 262.458 319.418 263.965 319.012C266.202 318.383 268.472 317.878 270.764 317.499C273.587 317.039 276.434 316.742 279.291 316.609C282.147 316.515 285.006 316.593 287.852 316.84C290.171 317.049 292.476 317.382 294.759 317.837C296.708 318.228 298.265 318.62 299.316 318.949C299.861 319.091 300.394 319.278 300.909 319.51Z" fill="#545C61"/>
<path d="M305.11 280.813C297.99 275.473 287.594 274.52 279.042 277.422C270.489 280.323 263.529 286.393 258.305 293.335L256.667 288.778C261.891 281.836 269.652 275.366 278.205 272.473C286.758 269.581 297.527 270.498 304.611 275.82C304.942 277.464 305.109 279.136 305.11 280.813Z" fill="#FF5E5E"/>
<g opacity="0.3">
<path d="M172.5 275.072C173.096 276.398 175.81 277.191 177.644 276.808C179.967 276.318 183.099 274.351 184.942 274.049C195.622 272.331 202.644 278.428 215.495 278.73C215.745 278.73 216.012 278.864 216.234 278.73C216.301 278.686 216.359 278.629 216.404 278.563C216.449 278.496 216.479 278.421 216.494 278.342C216.509 278.263 216.508 278.181 216.491 278.103C216.474 278.024 216.441 277.95 216.394 277.885C216.193 277.618 215.922 277.412 215.611 277.288C202.626 270.685 186.695 270.471 172.5 275.055" fill="#010101"/>
</g>
<g opacity="0.3">
<path d="M254.825 280.937C261.313 276.398 265.505 269.154 272.803 265.807C279.033 262.933 286.776 263.369 292.552 259.729C277.36 260.289 262.683 268.121 254.469 280.039" fill="#010101"/>
</g>
<path d="M259.595 373.8C270.062 379.14 283.18 378.535 293.273 372.777C293.583 372.575 293.848 372.311 294.05 372.002C294.253 371.692 294.389 371.344 294.45 370.979C294.512 370.614 294.496 370.241 294.405 369.882C294.314 369.524 294.15 369.188 293.922 368.896C293.421 368.309 292.723 367.923 291.958 367.812C291.194 367.7 290.415 367.871 289.766 368.291C281.382 373.079 270.533 373.061 261.98 368.718C261.266 368.423 260.468 368.406 259.742 368.669C259.016 368.933 258.414 369.458 258.056 370.142C257.361 371.62 258.18 373.079 259.595 373.8Z" fill="#545C61"/>
<path d="M202.03 392.33C211.327 389.767 220.741 387.598 230.27 385.824C231.02 385.752 231.712 385.389 232.199 384.814C232.686 384.239 232.929 383.496 232.877 382.744C232.746 381.992 232.329 381.319 231.714 380.867C231.099 380.414 230.333 380.216 229.575 380.315C219.56 382.184 209.651 384.465 199.849 387.159C199.502 387.277 199.181 387.464 198.907 387.709C198.633 387.954 198.411 388.251 198.254 388.583C198.098 388.915 198.009 389.275 197.994 389.642C197.979 390.009 198.038 390.375 198.167 390.719C198.504 391.411 199.084 391.955 199.797 392.246C200.51 392.536 201.305 392.554 202.03 392.294V392.33Z" fill="#545C61"/>
<path d="M298.853 325.019C298.853 325.019 305.021 332.344 304.407 335.592C303.793 338.841 296.441 362.025 296.441 362.025L291.804 364.784L298.853 325.019Z" fill="white"/>
<path d="M291.769 364.357C291.599 364.357 293.442 354.861 295.898 343.22C298.355 331.579 300.464 322.18 300.633 322.18C300.802 322.18 298.951 331.668 296.503 343.318C294.056 354.968 291.92 364.384 291.769 364.357Z" fill="#545C61"/>
<path d="M186.188 359.854C185.933 359.166 185.911 358.415 186.125 357.714C186.338 357.013 186.777 356.401 187.372 355.973C190.78 353.392 197.446 348.916 199.2 350.491C200.953 352.066 205.083 368.104 206.649 374.565C206.823 375.351 206.713 376.173 206.338 376.885C205.964 377.597 205.348 378.154 204.602 378.455L197.954 381.374C197.572 381.548 197.159 381.643 196.739 381.655C196.32 381.667 195.902 381.595 195.511 381.443C195.119 381.292 194.762 381.063 194.46 380.772C194.158 380.48 193.918 380.131 193.753 379.745L186.188 359.854Z" fill="white"/>
<path d="M186.188 359.854C186.329 360.087 186.445 360.335 186.535 360.593C186.766 361.144 187.06 361.865 187.425 362.764C188.19 364.713 189.267 367.437 190.576 370.774C191.234 372.474 191.955 374.334 192.72 376.319C193.112 377.316 193.504 378.348 193.913 379.407C194.078 379.939 194.398 380.41 194.833 380.759C195.267 381.108 195.796 381.319 196.352 381.365C196.945 381.419 197.541 381.302 198.069 381.027L199.849 380.235L203.552 378.597C204.184 378.387 204.784 378.087 205.332 377.707C205.814 377.307 206.165 376.77 206.337 376.168C206.502 375.556 206.483 374.909 206.284 374.307C206.124 373.649 205.955 372.981 205.795 372.314C204.46 366.974 203.125 361.874 201.736 357.3C201.145 355.13 200.331 353.027 199.306 351.025C198.844 350.135 197.526 350.438 196.636 350.722C195.716 351.051 194.823 351.452 193.966 351.924C192.302 352.814 190.878 353.757 189.632 354.594L187.932 355.787C187.45 356.089 187.027 356.478 186.686 356.935C186.252 357.565 186.045 358.325 186.099 359.088C186.152 359.605 186.259 359.872 186.232 359.881C186.101 359.637 186.013 359.372 185.974 359.097C185.861 358.299 186.042 357.486 186.482 356.81C186.82 356.321 187.249 355.901 187.745 355.573C188.253 355.181 188.813 354.772 189.427 354.336C190.812 353.335 192.254 352.413 193.744 351.577C194.625 351.074 195.548 350.648 196.503 350.304C197.031 350.107 197.586 349.99 198.149 349.957C198.455 349.95 198.758 350.008 199.039 350.126C199.318 350.271 199.552 350.49 199.716 350.758C200.79 352.792 201.646 354.934 202.27 357.148C203.703 361.732 205.047 366.823 206.382 372.18C206.542 372.857 206.711 373.515 206.871 374.183C207.076 374.877 207.076 375.616 206.871 376.31C206.666 377.012 206.25 377.633 205.679 378.09C205.395 378.334 205.077 378.534 204.735 378.686L203.81 379.14L200.107 380.76L198.327 381.543C197.7 381.858 196.997 381.99 196.298 381.926C195.642 381.865 195.019 381.613 194.506 381.2C193.993 380.786 193.613 380.231 193.415 379.603L192.24 376.47C191.492 374.471 190.801 372.613 190.166 370.899C188.929 367.543 187.923 364.793 187.194 362.826L186.419 360.628C186.319 360.378 186.241 360.118 186.188 359.854Z" fill="#545C61"/>
<path d="M303.347 281.187C302.705 281.105 302.069 280.983 301.443 280.822C299.72 280.465 297.979 280.2 296.227 280.03C290.456 279.464 284.629 279.987 279.05 281.569C271.902 283.662 265.399 287.529 260.147 292.81C259.728 293.278 259.276 293.716 258.794 294.118C258.794 294.118 258.874 293.967 259.07 293.718C259.266 293.469 259.55 293.104 259.96 292.659C261.111 291.386 262.352 290.196 263.671 289.099C268.133 285.416 273.304 282.689 278.863 281.089C284.52 279.475 290.44 279.003 296.281 279.7C298.039 279.907 299.781 280.231 301.496 280.67C302.11 280.822 302.564 280.982 302.876 281.071C303.037 281.089 303.196 281.128 303.347 281.187Z" fill="#545C61"/>
<path d="M304.727 287.47C304.105 287.443 303.486 287.368 302.876 287.248C302.288 287.15 301.559 287.043 300.713 286.954C299.868 286.865 298.933 286.714 297.856 286.651C295.365 286.43 292.863 286.338 290.362 286.375C284.247 286.462 278.166 287.326 272.269 288.947C269.881 289.613 267.529 290.397 265.22 291.297C264.223 291.653 263.36 292.062 262.55 292.383C261.74 292.703 261.117 293.006 260.583 293.273C260.039 293.56 259.474 293.804 258.892 294.003C259.391 293.663 259.918 293.365 260.467 293.113C260.984 292.828 261.624 292.49 262.399 292.143C263.173 291.795 264.018 291.35 265.006 290.968C267.314 290.002 269.677 289.173 272.082 288.485C278.014 286.779 284.154 285.904 290.327 285.886C292.848 285.871 295.368 286.005 297.874 286.286C298.942 286.375 299.903 286.553 300.74 286.678C301.576 286.803 302.306 286.936 302.894 287.07C303.515 287.15 304.129 287.284 304.727 287.47Z" fill="#545C61"/>
<path d="M177.35 313.28C177.805 312.964 178.288 312.69 178.792 312.461C179.367 312.142 179.961 311.86 180.572 311.616C181.275 311.313 182.058 310.939 182.975 310.628C185.102 309.835 187.286 309.205 189.507 308.741C194.995 307.6 200.641 307.434 206.186 308.251C208.436 308.586 210.658 309.086 212.834 309.747C213.724 310.005 214.614 310.334 215.3 310.592C215.907 310.804 216.501 311.051 217.08 311.331C217.599 311.533 218.099 311.78 218.575 312.07C218.521 312.176 216.368 311.18 212.674 310.138C210.506 309.536 208.3 309.081 206.07 308.777C200.593 308.03 195.029 308.196 189.605 309.266C187.402 309.711 185.231 310.306 183.108 311.046C179.495 312.283 177.412 313.413 177.35 313.28Z" fill="#545C61"/>
<path d="M218.94 313.663C218.409 313.732 217.872 313.75 217.338 313.716H212.977C209.301 313.716 204.219 313.903 198.63 314.375C193.041 314.846 188.012 315.558 184.39 316.155L180.1 316.885C179.579 317 179.049 317.072 178.516 317.098C179.012 316.898 179.528 316.752 180.056 316.662C181.053 316.413 182.503 316.101 184.31 315.772C193.76 313.984 203.369 313.17 212.986 313.342C214.828 313.342 216.314 313.44 217.347 313.511C217.881 313.514 218.414 313.565 218.94 313.663Z" fill="#545C61"/>
<path d="M178 200.624C178 200.624 202.688 207.059 229.744 205.964C256.8 204.869 267.4 199.609 267.4 199.609L269.002 208.705C269.002 208.705 236.125 221.468 176.878 209.399C176.896 209.382 176.398 202.591 178 200.624Z" fill="#FF5E5E"/>
<path d="M188.422 202.635L187.772 212.336L194.038 213.191L195.061 202.466L188.422 202.635Z" fill="white"/>
<path d="M251.496 203.107L253.926 212.559L260.191 211.66L257.788 201.122L251.496 203.107Z" fill="white"/>
<path d="M211.686 214.89L203.24 213.983L204.353 204.994L212.799 205.901L211.686 214.89Z" fill="#545C61"/>
<g opacity="0.3">
<path d="M207.743 191.537C199.057 196.334 187.015 201.327 178.373 206.168L177.483 211.909C184.799 209.461 193.753 206.249 200.107 201.879C201.887 200.65 205.323 198.319 206.622 196.539C207.921 194.759 208.438 193.593 207.743 191.537Z" fill="#010101"/>
</g>
<path d="M160.111 181.133C153.703 184.266 146.681 189.214 147.517 197.322C148.274 204.709 155.527 207.797 162.096 208.376C178.81 209.844 195.373 201.496 209.159 193.005C213.609 190.264 209.524 183.215 205.047 185.974C194.794 192.293 183.794 198.078 171.725 199.85C167.596 200.455 160.627 201.469 156.978 198.621C151.691 194.492 161.909 189.721 164.757 188.288L164.65 179.566C163.098 179.967 161.58 180.491 160.111 181.133Z" fill="white"/>
<path d="M160.111 181.133C160.469 180.935 160.841 180.762 161.223 180.617C162.338 180.179 163.476 179.804 164.632 179.495H164.721V179.593C164.721 181.774 164.819 184.711 164.881 188.315V188.386H164.81C162.825 189.317 160.915 190.401 159.096 191.626C158.079 192.309 157.178 193.151 156.426 194.118C156.035 194.617 155.781 195.209 155.688 195.836C155.634 196.48 155.835 197.119 156.248 197.616C157.172 198.674 158.4 199.42 159.764 199.752C161.215 200.139 162.712 200.333 164.214 200.33C167.454 200.253 170.681 199.902 173.861 199.28C181.007 197.797 187.901 195.291 194.331 191.84C197.776 190.06 201.22 188.057 204.682 185.939C204.903 185.795 205.135 185.67 205.376 185.565C205.608 185.427 205.86 185.328 206.124 185.271C206.646 185.113 207.197 185.076 207.735 185.165C208.276 185.27 208.79 185.481 209.249 185.787C209.707 186.092 210.1 186.486 210.405 186.945C211.051 187.836 211.365 188.925 211.295 190.024C211.254 190.58 211.097 191.121 210.833 191.611C210.57 192.102 210.205 192.532 209.764 192.872C204.507 196.261 199.023 199.285 193.352 201.923C190.593 203.169 187.852 204.335 185.093 205.261C183.723 205.768 182.334 206.151 180.973 206.569C179.611 206.987 178.231 207.317 176.87 207.575C171.707 208.716 166.393 209.016 161.134 208.465C158.745 208.191 156.417 207.523 154.246 206.489C152.213 205.554 150.459 204.107 149.155 202.288C148.037 200.589 147.42 198.608 147.375 196.574C147.296 194.769 147.634 192.969 148.363 191.315C149.61 188.716 151.504 186.482 153.863 184.826C155.309 183.744 156.846 182.789 158.456 181.97C159.007 181.676 159.435 181.48 159.719 181.338L160.155 181.142C160.155 181.142 160.022 181.231 159.737 181.382C159.452 181.533 159.043 181.738 158.5 182.05C156.915 182.901 155.4 183.877 153.97 184.969C151.674 186.634 149.837 188.854 148.63 191.421C147.948 193.047 147.644 194.806 147.74 196.566C147.802 198.541 148.419 200.46 149.52 202.101C150.8 203.863 152.514 205.264 154.495 206.169C156.635 207.174 158.927 207.82 161.277 208.082C166.494 208.605 171.762 208.287 176.879 207.139C187.71 204.816 198.835 199.298 209.568 192.489C209.96 192.192 210.284 191.814 210.519 191.381C210.754 190.948 210.894 190.471 210.93 189.98C210.994 188.984 210.704 187.997 210.111 187.194C209.555 186.387 208.705 185.831 207.744 185.645C207.268 185.568 206.782 185.598 206.32 185.734C206.085 185.789 205.86 185.879 205.652 186.001C205.427 186.103 205.209 186.222 205.003 186.357C201.532 188.475 198.078 190.487 194.616 192.258C188.146 195.726 181.206 198.233 174.013 199.698C170.803 200.322 167.545 200.664 164.276 200.722C162.746 200.722 161.223 200.518 159.746 200.117C158.315 199.759 157.031 198.966 156.07 197.847C155.617 197.276 155.397 196.554 155.456 195.827C155.563 195.147 155.838 194.504 156.257 193.958C157.046 192.966 157.986 192.104 159.043 191.404C160.882 190.184 162.813 189.109 164.819 188.191L164.757 188.297C164.757 184.693 164.712 181.756 164.694 179.575L164.783 179.647C163.262 180.047 162.113 180.421 161.366 180.697C160.983 180.839 160.707 180.955 160.476 181.035C160.361 181.088 160.237 181.121 160.111 181.133Z" fill="#545C61"/>
<path d="M30.75 45.75C30.75 56.0975 43.7412 64.6087 62 65.6438C63.2325 65.7138 73.2337 78.25 74.5 78.25C75.34 78.25 72.4238 65.7338 73.25 65.7038C92.1038 65 103.25 56.3325 103.25 45.75C103.25 34.7038 87.02 25.75 67 25.75C46.98 25.75 30.75 34.7038 30.75 45.75Z" fill="white"/>
<path d="M61.7 66.875C63.6175 68.6907 65.434 70.6103 67.1413 72.625C72.4338 78.5363 73.465 79.5 74.5 79.5C74.6932 79.4943 74.8832 79.4493 75.0584 79.3676C75.2336 79.2859 75.3902 79.1693 75.5187 79.025C76.105 78.3337 76.055 77.4512 75.1087 71.76C74.8587 70.2262 74.5 68.0925 74.385 66.9013C92.4463 65.9163 104.5 57.5 104.5 45.75C104.5 34.0325 87.6775 24.5 67 24.5C46.3225 24.5 29.5 34.0325 29.5 45.75C29.5 56.89 43.0275 65.75 61.7 66.875ZM67 27C86.2988 27 102 35.4113 102 45.75C102 56.29 90.4275 63.8063 73.2025 64.4538C73.0138 64.4666 72.8295 64.5169 72.6604 64.6017C72.4913 64.6864 72.3407 64.804 72.2175 64.9475C71.6525 65.6413 71.7038 66.5188 72.6437 72.17C72.8088 73.17 73.0187 74.43 73.175 75.5163C71.925 74.2125 70.2625 72.3625 69.005 70.9563C63.9525 65.3088 63.045 64.4562 62.0713 64.3962C44.6462 63.4087 32 55.5662 32 45.75C32 35.4113 47.7013 27 67 27Z" fill="white"/>
<path d="M60.3203 41.3125C60.6367 41.3242 60.9062 41.4414 61.1289 41.6641C61.3516 41.875 61.4688 42.1387 61.4805 42.4551V45.3906H67.1934V42.4551C67.2051 42.127 67.3281 41.8574 67.5625 41.6465C67.7969 41.4238 68.0781 41.3125 68.4062 41.3125C68.7227 41.3242 68.9922 41.4414 69.2148 41.6641C69.4375 41.875 69.5547 42.1387 69.5664 42.4551V51.0684C69.4961 51.7715 69.1094 52.1523 68.4062 52.2109C68.0781 52.2109 67.791 52.1055 67.5449 51.8945C67.3105 51.6719 67.1934 51.3965 67.1934 51.0684V47.7461H61.4805V51.0684C61.4102 51.7715 61.0234 52.1523 60.3203 52.2109C59.9922 52.2109 59.7051 52.1055 59.459 51.8945C59.2246 51.6719 59.1074 51.3965 59.1074 51.0684V42.4551C59.1191 42.127 59.2422 41.8574 59.4766 41.6465C59.7109 41.4238 59.9922 41.3125 60.3203 41.3125ZM72.959 43.8086C73.2754 43.8203 73.5449 43.9375 73.7676 44.1602C73.9902 44.3711 74.1074 44.6348 74.1191 44.9512V51.0332C74.0488 51.7363 73.6621 52.1172 72.959 52.1758C72.6309 52.1758 72.3438 52.0703 72.0977 51.8594C71.8633 51.6367 71.7461 51.3613 71.7461 51.0332V44.9512C71.7578 44.623 71.8809 44.3535 72.1152 44.1426C72.3496 43.9199 72.6309 43.8086 72.959 43.8086ZM71.4824 41.5234C71.4824 41.1953 71.623 40.9141 71.9043 40.6797C72.1855 40.4453 72.5254 40.3281 72.9238 40.3281C73.3223 40.3281 73.6621 40.4453 73.9434 40.6797C74.2246 40.9141 74.3652 41.1953 74.3652 41.5234C74.3652 41.8633 74.2246 42.1504 73.9434 42.3848C73.6621 42.6191 73.3223 42.7363 72.9238 42.7363C72.5254 42.7363 72.1855 42.6191 71.9043 42.3848C71.623 42.1504 71.4824 41.8633 71.4824 41.5234Z" fill="#1A1A1A"/>
</svg>
